<svg width="166" height="171" viewBox="0 0 166 171" fill="none" xmlns="http://www.w3.org/2000/svg">
<g id="cone">
<g id="ribbon-3">
<path id="Vector" d="M93.2948 28.5062C92.3693 27.8179 90.4721 28.2424 90.7317 29.7172C91.896 36.3477 92.5961 41.2111 87.9511 46.9129C87.7748 47.1296 87.5828 47.3308 87.3982 47.5373C87.2115 47.7163 87.0241 47.8947 86.8388 48.0722C86.4474 47.9143 85.9953 47.9066 85.5292 48.1899C85.1373 48.4284 84.7677 48.6751 84.4105 48.9276C80.6515 51.1384 78.0508 54.6591 78.0582 59.0509C77.729 62.7376 79.96 66.7512 80.5494 70.5624C80.2702 72.6623 79.7558 74.7581 78.8591 76.8691C78.427 77.0388 78.1871 77.3599 78.1069 77.7326C77.4744 78.1904 76.7196 78.5953 75.8089 78.937C73.9582 79.6319 74.8769 82.5619 76.7304 81.8655C78.5296 81.1902 79.8876 80.3806 80.9243 79.4713C86.4165 77.6836 85.9742 70.4281 84.2902 65.859C84.1898 65.5843 84.0301 65.3882 83.8503 65.2292C83.5937 62.8403 83.3864 60.2586 83.5999 57.8872C84.0309 56.1558 84.8341 54.4933 86.2489 52.9617C92.6134 46.0668 104.591 36.9053 93.2948 28.5062Z" fill="#EC2A5E"/>
<path id="Vector_2" d="M88.5172 27.6128C87.1746 28.0988 87.2931 29.7439 88.1557 30.3765C88.0926 30.6069 88.0759 30.8604 88.1347 31.1365C88.9284 34.8846 89.082 37.7443 88.3977 41.5383C87.434 46.8786 82.6152 47.9702 79.0687 50.4885C77.3943 51.6781 75.936 54.1626 75.9008 56.2421C75.8131 61.4279 82.4596 76.5611 73.5415 76.4593C72.7446 76.4493 72.3093 76.9442 72.1844 77.5343C71.9545 77.9575 71.8803 78.4695 72.1484 79.0029C72.94 80.6011 73.5744 82.2579 74.0523 83.9726C74.2857 84.7081 75.2077 85.3081 75.9773 84.9761C80.7913 82.8986 88.6748 79.744 88.0569 73.1109C87.7485 69.8071 86.8056 66.9484 85.6711 63.8335C82.6534 55.549 89.1395 52.1057 94.8171 47.8927C103.086 41.758 101.397 22.9601 88.5172 27.6128ZM96.8845 39.1118C96.3379 44.1783 91.3706 46.6109 87.722 49.1108C85.3708 50.7207 82.5785 53.2575 81.9493 56.1808C81.2895 59.2437 81.7749 61.809 82.7442 64.7578C83.2812 66.391 83.9133 67.9864 84.4343 69.6268C86.7211 76.8029 81.3604 79.3552 76.4498 81.4544C76.206 80.7512 75.9425 80.0653 75.6594 79.3847C83.0433 78.1949 81.3738 69.4362 80.0333 63.2737C79.1154 59.0538 77.5463 55.3315 82.2095 52.021C84.7659 50.2058 87.1461 49.4094 89.2377 46.9768C93.0203 42.5773 92.1539 35.3638 91.0639 30.2156C91.0594 30.1953 91.0508 30.178 91.0456 30.1585C96.1026 29.5083 97.2474 35.7526 96.8845 39.1118Z" fill="#303E5C"/>
</g>
<g id="ribbon-2">
<path id="Vector_3" d="M142.677 56.5988C142.634 56.734 142.503 56.8579 142.372 57.003C142.364 57.0119 142.363 57.0233 142.354 57.0336C141.46 56.8677 140.441 57.3747 140.549 58.5404C141.383 67.5367 127.201 71.8897 120.417 73.6675C113.797 75.4019 108.179 76.6974 104.316 82.3214C103.12 82.248 102.14 83.842 103.177 84.9878L105.261 86.8777C105.964 87.5159 106.796 87.3147 107.319 86.7965C107.854 86.6663 108.3 86.2658 108.498 85.6615C109.168 83.6267 111.158 81.9538 112.974 80.9577C113.725 80.5452 113.82 79.8375 113.572 79.2323C124.148 74.4746 141.18 73.1224 143.426 62.2719C144.008 62.2817 144.62 62.0027 144.83 61.4452C145.41 59.9147 145.944 58.5046 145.713 56.8387C145.467 55.0716 143.214 54.9217 142.677 56.5988Z" fill="#FDB151"/>
<path id="Vector_4" d="M139.555 54.3865C137.821 54.1093 137.122 56.4612 138.382 57.1948C141.901 64.9232 125.223 69.2825 120.56 70.7034C112.633 73.1175 104.629 75.1184 101.22 83.4189C101.15 83.588 101.138 83.7472 101.125 83.9071C100.498 84.7221 100.64 86.1318 101.948 86.354C103.439 86.6077 104.57 87.1521 105.271 88.5423C105.466 88.9286 105.747 89.1265 106.05 89.2201C106.72 89.9336 107.998 90.0759 108.507 88.9283C115.769 72.537 143.373 79.1647 147.117 60.3079C147.958 59.8485 148.421 58.6528 147.483 57.8398C145.201 55.8577 142.513 54.8575 139.555 54.3865ZM106.867 85.5209C106.185 84.7995 105.36 84.2436 104.43 83.8726C109.218 74.438 124.032 73.4821 133.009 69.2894C137.929 66.9908 142.557 63.253 141.762 58.0884C142.616 58.3766 143.432 58.7488 144.206 59.2321C141.345 75.3465 115.308 72.1489 106.867 85.5209Z" fill="#303E5C"/>
</g>
<g id="ribbon-1">
<path id="Vector_5" d="M121.53 31.7304C121.035 31.8112 120.544 31.9187 120.058 32.0521C118.961 32.3527 118.606 33.9211 119.488 34.6526C124.589 38.8837 119.474 46.8618 114.537 48.7995C113.619 49.16 113.389 50.0732 113.619 50.806C113.313 51.4856 113.393 52.39 114.187 52.9063C117.911 55.3307 122.53 49.7952 124.494 47.2577C128.215 42.4513 127.1 38.442 125.173 33.6122C125.225 33.0759 125.045 32.5077 124.575 32.1356C124.536 32.0391 124.497 31.9454 124.457 31.8489C123.877 30.4231 121.983 30.6804 121.53 31.7304Z" fill="#80CDD7"/>
<path id="Vector_6" d="M122.28 29.204C120.418 29.4945 118.568 29.6944 116.909 30.7253C115.702 31.4737 116.216 32.9955 117.215 33.4275C119.085 36.8697 120.413 40.2718 117.762 43.79C116.062 46.0448 113.287 47.2272 111.671 49.5396C110.847 50.0045 110.514 51.3177 111.371 52.0837C111.389 52.1013 111.409 52.1158 111.428 52.1333C111.497 52.1901 111.541 52.2581 111.624 52.3064C113.205 53.2254 114.454 54.271 115.796 55.4742C116.463 56.0732 117.345 55.936 117.964 55.3692C122.293 51.4096 127.902 48.6922 129.22 42.517C130.252 37.6816 126.92 33.001 124.891 28.9224C124.255 27.6408 122.748 28.1617 122.28 29.204ZM126.215 41.884C125.832 46.4994 120.445 49.4905 116.855 52.3288C116.144 51.7271 115.415 51.163 114.656 50.6329C115.777 49.2757 117.411 48.231 118.705 47.1308C120.391 45.6936 121.442 44.0013 122.152 41.9264C123.217 38.8204 121.764 35.4365 120.263 32.6148C121.184 32.3682 122.158 32.2556 123.11 32.1284C124.752 35.1987 126.517 38.2637 126.215 41.884Z" fill="#303E5C"/>
</g>
<g id="cone-1">
<path id="Vector_7" d="M101.803 107.151C101.794 107.158 101.786 107.164 101.777 107.17C98.8574 100.829 89.875 97.0847 84.1144 94.6004C74.8999 90.625 64.0687 88.2534 54.3327 91.5705C52.9845 92.0299 53.0956 93.6563 53.9542 94.3054C53.7192 96.3833 54.0505 98.3862 54.4777 100.556C55.7253 106.905 55.8989 112.759 55.6447 119.219C55.148 131.798 55.5941 144.387 54.7442 156.955C54.6587 158.221 55.8864 158.6 56.8147 158.198C57.4996 158.552 58.368 158.446 58.7306 157.519C60.3187 153.458 63.8984 150.633 67.0368 147.76C71.4725 143.702 75.015 138.635 78.8679 134.036C82.4773 129.731 86.4376 125.914 90.5608 122.112C94.3467 118.623 97.4857 114.412 101.497 111.183C101.785 111.066 102.047 110.876 102.24 110.624C102.636 110.326 103.029 110.02 103.446 109.743C105.096 108.647 103.45 106.056 101.803 107.151Z" fill="#80CDD7"/>
<path id="Vector_8" d="M55.6442 132.741C54.6176 132.898 54.1767 133.83 54.2751 134.63C53.6552 135.578 54.5553 137.313 56.0612 137.01C61.0601 136.009 65.4226 139.932 68.994 142.861C69.4829 143.261 70.3 143.453 70.8474 143.02C71.8971 142.19 72.2183 141.836 72.9421 140.711C73.3296 140.106 73.0302 139.351 72.6031 138.882C68.3057 134.175 61.978 131.777 55.6442 132.741Z" fill="#EC2A5E"/>
<path id="Vector_9" d="M55.1175 115.071C53.3033 115.832 54.2144 118.764 56.0383 117.999C65.1286 114.187 79.1964 120.084 82.4313 129.558C83.0707 131.433 85.9976 130.51 85.3591 128.637C81.6127 117.663 65.8014 110.592 55.1175 115.071Z" fill="#EC2A5E"/>
<path id="Vector_10" d="M90.3547 107.78C86.3097 103.415 81.1467 100.279 74.9837 98.5166C69.1381 96.8435 59.5476 95.9172 54.3596 99.6872C52.7638 100.847 54.4032 103.442 56.0038 102.279C60.3899 99.0923 68.0316 100.387 72.9619 101.218C77.5438 101.99 81.7194 104.083 85.2236 107.012C84.9967 107.659 85.1382 108.411 85.9472 108.786C86.8923 109.222 87.7584 109.72 88.5509 110.278C90.5359 112.542 92.1977 115.089 93.4468 117.794C94.2748 119.588 96.7705 118.836 96.3746 116.874C95.575 112.904 93.4403 109.936 90.3547 107.78Z" fill="#EC2A5E"/>
<path id="Vector_11" d="M81.7412 91.6514C77.0595 89.908 72.2908 88.6744 67.3387 88.0061C61.8998 87.2717 58.8727 89.1311 54.1151 90.1135C53.0289 89.8196 51.594 90.4892 51.6222 91.9823C52.046 114.874 52.4699 137.766 52.8944 160.658C52.92 162.083 54.2465 162.544 55.2991 162.179C55.5954 162.1 55.8918 161.964 56.1679 161.687C72.5402 145.317 88.9118 128.946 105.285 112.574C105.893 112.402 106.448 111.839 106.545 111.141C107.047 110.153 106.497 109.088 105.619 108.71C100.547 99.4379 91.4824 95.2768 81.7412 91.6514ZM67.9572 144.843C64.1372 148.663 60.3165 152.483 56.4965 156.303C56.3921 150.693 56.2893 145.085 56.185 139.475C60.2947 137.909 65.6328 141.296 67.9572 144.843ZM71.8879 140.913C71.3189 141.482 70.7498 142.05 70.1807 142.619C67.206 138.351 61.2193 135.18 56.1267 136.335L56.0532 132.36C58.3852 132.694 60.7133 133.079 63.001 133.637C65.3302 134.205 70.7206 138.141 71.8879 140.913ZM81.4417 131.361C78.9893 133.813 76.5363 136.266 74.0839 138.718C72.333 135.943 68.9413 133.622 66.6573 131.977C63.7878 129.911 59.486 129.672 55.9952 129.239C55.9432 126.373 55.8898 123.507 55.8357 120.64C63.809 118.921 79.3884 122.324 81.4417 131.361ZM84.3268 128.476C84.1682 128.634 84.0089 128.794 83.8503 128.952C79.9707 119.573 65.1871 115.822 55.7778 117.521C55.7678 117.01 55.7584 116.499 55.7491 115.989C66.5906 114.101 78.9576 118.598 84.3268 128.476ZM92.3097 119.664C92.2161 119.921 92.2156 120.203 92.3057 120.498C90.4008 122.403 88.4945 124.308 86.5896 126.213C80.5685 115.745 67.3486 111.206 55.6934 112.93C55.6396 110.026 55.5858 107.122 55.5326 104.217C68.8395 99.2566 87.1943 106.019 92.3097 119.664ZM55.4714 100.972C55.4637 100.597 55.4574 100.22 55.4504 99.845C70.6344 94.4718 89.8346 101.833 96.408 116.396C95.9104 116.893 95.4144 117.39 94.9175 117.886C89.0589 103.55 69.9166 96.1132 55.4714 100.972ZM102.819 109.984C101.447 111.357 100.073 112.73 98.701 114.102C91.0745 99.0934 71.6878 91.3352 55.3908 96.6182C55.3672 95.3642 55.3428 94.1095 55.3206 92.8554C57.6528 92.1343 59.8079 91.077 62.3907 90.8625C67.0338 90.4783 71.8159 91.77 76.2474 93.0123C86.5214 95.8925 97.3457 100.521 102.819 109.984Z" fill="#303E5C"/>
</g>
<path id="line-11" d="M61.3724 71.9831C60.4656 72.0273 59.9694 72.7559 59.9146 73.5904C59.7977 75.3462 59.56 77.0922 59.629 78.8559C59.7051 80.8366 62.7709 80.685 62.6942 78.7065C62.6266 76.9427 62.8636 75.1974 62.9798 73.441C63.036 72.605 62.1366 71.9458 61.3724 71.9831Z" fill="#303E5C"/>
<path id="line-10" d="M92.0335 84.3376C91.3007 85.1769 90.7222 86.1346 89.9893 86.9725C88.687 88.4604 90.9582 90.5244 92.2625 89.0343C92.9955 88.1965 93.5731 87.2381 94.3068 86.3995C95.609 84.9116 93.3385 82.8468 92.0335 84.3376Z" fill="#303E5C"/>
<path id="line-9" d="M129.533 92.1061C128.415 93.2898 127.028 94.0923 125.653 94.943C123.966 95.9852 125.617 98.5744 127.298 97.5346C128.909 96.5393 130.497 95.555 131.807 94.1686C133.166 92.7283 130.89 90.668 129.533 92.1061Z" fill="#303E5C"/>
<path id="line-8" d="M99.3755 53.7135C99.2275 54.743 99.1328 55.7791 98.9842 56.8107C98.7032 58.7578 101.705 59.4093 101.988 57.4437C102.136 56.4135 102.231 55.3774 102.38 54.3458C102.659 52.3987 99.6576 51.7472 99.3755 53.7135Z" fill="#303E5C"/>
<path id="line-7" d="M73.7787 33.5844C72.9029 33.8593 72.6276 34.6883 72.7752 35.5094C72.8763 36.0723 73.1969 36.5048 73.6043 36.8906C75.0434 38.2512 77.103 35.9759 75.6662 34.6173C75.6646 34.6726 75.6769 34.6635 75.703 34.5886C75.555 33.7605 74.4996 33.3567 73.7787 33.5844Z" fill="#303E5C"/>
<path id="line-6" d="M108.413 27.3783C108.075 28.5869 107.787 29.7896 107.818 31.0553C107.865 33.0388 110.93 32.883 110.883 30.9058C110.86 29.9152 111.153 28.9565 111.417 28.0105C111.949 26.105 108.943 25.4792 108.413 27.3783Z" fill="#303E5C"/>
<path id="line-5" d="M151.321 44.4693C150.336 44.2342 149.347 44.385 148.377 44.6135C147.561 44.8048 147.137 45.7855 147.373 46.5385C147.639 47.3815 148.486 47.7324 149.298 47.542C149.768 47.432 150.221 47.3625 150.69 47.4741C152.614 47.9311 153.247 44.9283 151.321 44.4693Z" fill="#303E5C"/>
<path id="line-4" d="M49.3153 81.4926C48.5832 81.7222 47.9744 82.6524 48.3119 83.4175C48.4727 83.7835 48.8197 84.2345 48.8644 84.6302C49.0825 86.5898 52.1489 86.4523 51.9296 84.4808C51.8438 83.709 51.5421 83.1829 51.2396 82.4953C50.9028 81.7309 50.1772 81.2226 49.3153 81.4926Z" fill="#303E5C"/>
<path id="line-3" d="M63.7389 51.3486C65.2942 54.1484 66.6399 57.035 67.8138 60.0155C68.5362 61.8507 71.4664 60.9361 70.7409 59.094C69.4715 55.8703 68.0138 52.7337 66.3306 49.7044C65.3681 47.9687 62.7829 49.6282 63.7389 51.3486Z" fill="#303E5C"/>
<path id="line-2" d="M122.869 59.3869C120.45 59.3009 117.939 59.5232 115.842 60.836C114.161 61.8886 115.811 64.4771 117.487 63.4283C119.122 62.4056 121.148 62.3868 123.018 62.4535C124.997 62.5234 124.832 59.4575 122.869 59.3869Z" fill="#303E5C"/>
<path id="line-1" d="M118.062 105.122C115.856 104.802 113.653 104.777 111.504 105.442C109.607 106.026 110.537 108.952 112.425 108.369C114.064 107.862 115.746 107.882 117.429 108.125C119.377 108.407 120.028 105.406 118.062 105.122Z" fill="#303E5C"/>
</g>
</svg>
