<svg width="326" height="63" viewBox="0 0 326 63" fill="none" xmlns="http://www.w3.org/2000/svg">
<g id="flags">
<g id="Group">
<path id="Vector" d="M174.041 21.6003C180.92 24.7595 187.962 27.4384 195.117 29.6348C189.489 35.2205 183.447 40.5505 177.01 45.575C175.55 37.5403 174.563 29.5328 174.041 21.6003Z" fill="#FF7886"/>
<path id="Vector_2" d="M196.505 28.2411C196.325 28.0008 196.086 27.7901 195.718 27.6773C188.904 25.586 182.202 23.0292 175.64 20.0516C175.522 19.8127 175.347 19.5895 175.029 19.432C168.575 16.1748 165.271 10.1852 164.221 3.2075C163.927 1.25302 160.951 2.01102 161.243 3.95345C162.286 10.878 165.599 17.0799 171.422 20.8603C171.89 29.0516 172.856 37.3287 174.328 45.6407C173.903 46.4689 174.626 47.4923 175.592 47.8412C176.545 48.2267 177.764 47.9515 178.005 47.0539C184.688 41.8351 190.941 36.2941 196.746 30.4774C197.502 29.717 197.17 28.7609 196.505 28.2411ZM177.406 43.1176C176.205 36.4054 175.338 29.7111 174.799 23.0685C180.668 25.7117 186.651 28.0056 192.719 29.9522C187.902 34.5369 182.794 38.9346 177.406 43.1176Z" fill="#303E5C"/>
<path id="Vector_3" d="M197.872 30.4539C205.055 32.526 212.345 34.1144 219.692 35.22C214.979 41.5796 209.826 47.7508 204.246 53.6908C201.65 45.9694 199.526 38.2081 197.872 30.4539Z" fill="#80CDD7"/>
<path id="Vector_4" d="M220.852 33.6359C220.643 33.426 220.377 33.2537 219.998 33.1957C212.306 32.0389 204.678 30.3455 197.174 28.1168C196.162 27.8159 195.443 28.4531 195.246 29.2237C195.163 29.4538 195.12 29.7068 195.182 30.0073C196.821 38.0603 198.969 46.1262 201.63 54.1562C201.336 55.0405 202.192 55.9409 203.189 56.1405C204.178 56.3809 205.334 55.9211 205.438 54.9983C211.232 48.8362 216.563 42.4252 221.418 35.8109C222.049 34.9475 221.583 34.0533 220.852 33.6359ZM217.386 35.8928C213.324 41.1445 208.951 46.2557 204.281 51.1989C202.129 44.7483 200.312 38.2677 198.826 31.7878C204.947 33.5047 211.143 34.8723 217.386 35.8928Z" fill="#303E5C"/>
<path id="Vector_5" d="M243.976 37.1064C251.394 37.1505 258.815 36.7084 266.193 35.7782C263.377 43.1788 260.095 50.5135 256.349 57.7411C251.772 51.0122 247.643 44.1179 243.976 37.1064Z" fill="#80CDD7"/>
<path id="Vector_6" d="M266.881 33.9389C266.623 33.7938 266.32 33.6986 265.938 33.7486C258.216 34.7187 250.444 35.1535 242.681 35.0483C241.633 35.0316 241.12 35.8417 241.141 36.6354C241.123 36.8811 241.149 37.1358 241.288 37.4091C245.019 44.7122 249.248 51.8939 253.966 58.9002C253.923 59.8334 254.988 60.4697 255.999 60.3896C257.013 60.3515 257.996 59.5984 257.847 58.6807C261.739 51.1804 265.131 43.5653 268.016 35.8832C268.39 34.8788 267.698 34.1433 266.881 33.9389ZM264.155 37.0505C261.668 43.2065 258.853 49.3118 255.709 55.3363C251.901 49.7079 248.413 43.962 245.248 38.1297C251.558 38.1216 257.871 37.7624 264.155 37.0505Z" fill="#303E5C"/>
<path id="Vector_7" d="M221.662 35.5046C229.019 36.5224 236.432 37.0565 243.849 37.1044C240.095 44.0728 235.884 50.9124 231.224 57.5853C227.571 50.3131 224.382 42.9368 221.662 35.5046Z" fill="#FF7886"/>
<path id="Vector_8" d="M244.77 35.3727C244.534 35.1951 244.246 35.0612 243.862 35.0582C236.098 35.008 228.341 34.4188 220.646 33.291C219.606 33.1394 218.991 33.8731 218.907 34.6644C218.857 34.9052 218.85 35.1612 218.952 35.4487C221.698 43.1796 224.952 50.8545 228.709 58.4232C228.544 59.3356 229.516 60.1087 230.528 60.1616C231.536 60.2574 232.61 59.6426 232.583 58.7117C237.424 51.787 241.778 44.6807 245.636 37.4457C246.139 36.5023 245.551 35.6822 244.77 35.3727ZM241.667 38.0992C238.399 43.8738 234.811 49.5577 230.905 55.1181C227.871 49.0368 225.166 42.8853 222.79 36.6875C229.055 37.5066 235.357 37.9774 241.667 38.0992Z" fill="#303E5C"/>
<path id="Vector_9" d="M287.95 31.5833C295.194 29.6897 302.345 27.3087 309.355 24.4383C308.498 32.3443 307.174 40.3012 305.377 48.2731C299.156 42.9778 293.341 37.4001 287.95 31.5833Z" fill="#80CDD7"/>
<path id="Vector_10" d="M322.117 7.33358C318.743 12.2344 315.394 20.0165 309.48 22.4677C309.207 22.4122 308.911 22.4072 308.579 22.5444C308.082 22.7458 307.581 22.927 307.084 23.1243C307.03 23.1331 306.979 23.1509 306.926 23.1576C306.625 23.1955 306.41 23.3115 306.231 23.4553C299.643 26.0386 292.942 28.2131 286.154 29.9325C285.128 30.1894 284.839 31.1048 285.064 31.8683C285.111 32.1075 285.202 32.3487 285.408 32.5756C290.931 38.6586 296.916 44.4894 303.344 50.0176C303.541 50.9265 304.746 51.262 305.716 50.9218C306.697 50.6189 307.468 49.6288 307.083 48.7794C308.871 40.8814 310.179 32.9961 311.038 25.1632C317.385 22.3101 321.04 14.3061 324.728 8.94664C325.854 7.31075 323.233 5.71147 322.117 7.33358ZM304.128 46.118C298.946 41.6835 294.052 37.0478 289.455 32.243C295.609 30.5827 301.695 28.5757 307.681 26.2123C306.829 32.824 305.645 39.4659 304.128 46.118Z" fill="#303E5C"/>
<path id="Vector_11" d="M265.866 35.8215C273.245 34.9053 280.582 33.506 287.826 31.6174C285.967 39.3257 283.639 47.0289 280.838 54.6819C275.41 48.6032 270.417 42.2997 265.866 35.8215Z" fill="#FF7886"/>
<path id="Vector_12" d="M288.277 29.6995C288 29.5909 287.684 29.5395 287.31 29.6336C279.727 31.6113 272.042 33.0474 264.313 33.9443C263.27 34.0648 262.864 34.9314 262.987 35.7205C263.002 35.963 263.06 36.2124 263.233 36.4666C267.881 43.2261 273.013 49.803 278.614 56.1419C278.691 57.066 279.831 57.562 280.828 57.3544C281.834 57.1831 282.717 56.3067 282.449 55.4152C285.363 47.4737 287.765 39.4771 289.66 31.4786C289.904 30.4361 289.118 29.7963 288.277 29.6995ZM285.956 33.1437C284.266 39.5746 282.245 45.9977 279.89 52.381C275.372 47.2909 271.161 42.0471 267.262 36.6727C273.537 35.8485 279.778 34.6724 285.956 33.1437Z" fill="#303E5C"/>
</g>
<g id="Group_2">
<path id="Vector_13" d="M13.2358 19.2653C20.1888 22.2633 27.2918 24.7753 34.4958 26.8003C29.0008 32.5193 23.0868 37.9883 16.7698 43.1673C15.1208 35.1673 13.9448 27.1853 13.2358 19.2653Z" fill="#FDB151"/>
<path id="Vector_14" d="M35.8499 25.3763C35.6659 25.1383 35.4209 24.9353 35.0509 24.8293C28.1889 22.9013 21.4288 20.5013 14.7988 17.6813C14.6748 17.4453 14.4949 17.2263 14.1749 17.0743C7.64486 13.9723 4.20085 8.06229 2.98685 1.11129C2.64685 -0.835706 -0.311146 -0.00771105 0.026854 1.92529C1.23285 8.82529 4.69285 14.9463 10.6029 18.5873C11.2639 26.7673 12.4239 35.0193 14.0919 43.2943C13.6879 44.1323 14.4349 45.1383 15.4079 45.4643C16.3689 45.8273 17.5829 45.5233 17.8009 44.6183C24.3589 39.2433 30.4799 33.5563 36.1459 27.6063C36.8819 26.8273 36.5269 25.8803 35.8499 25.3763ZM17.1079 40.7003C15.7489 34.0143 14.7239 27.3453 14.0279 20.7163C19.9579 23.2203 25.9939 25.3723 32.1069 27.1753C27.3979 31.8723 22.3959 36.3903 17.1079 40.7003Z" fill="#303E5C"/>
<path id="Vector_15" d="M37.2689 27.5563C44.4989 29.4583 51.8229 30.8743 59.1949 31.8043C54.6329 38.2753 49.6279 44.5663 44.1899 50.6343C41.4119 42.9763 39.1059 35.2683 37.2689 27.5563Z" fill="#80CDD7"/>
<path id="Vector_16" d="M60.3178 30.1943C60.1038 29.9873 59.8338 29.8213 59.4528 29.7743C51.7358 28.7993 44.0708 27.2863 36.5148 25.2353C35.4958 24.9583 34.7928 25.6123 34.6138 26.3873C34.5358 26.6193 34.4988 26.8733 34.5678 27.1723C36.3968 35.1843 38.7348 43.1973 41.5838 51.1603C41.3118 52.0513 42.1878 52.9313 43.1898 53.1093C44.1848 53.3243 45.3288 52.8393 45.4108 51.9123C51.0578 45.6173 56.2358 39.0823 60.9338 32.3553C61.5458 31.4773 61.0578 30.5933 60.3178 30.1943ZM56.9048 32.5323C52.9678 37.8783 48.7178 43.0893 44.1648 48.1453C41.8618 41.7433 39.8918 35.3073 38.2528 28.8663C44.4138 30.4383 50.6408 31.6593 56.9048 32.5323Z" fill="#303E5C"/>
<path id="Vector_17" d="M83.5168 33.1183C90.9338 32.9873 98.3438 32.3703 105.698 31.2663C103.057 38.7313 99.9488 46.1413 96.3748 53.4553C91.6388 46.8373 87.3488 40.0423 83.5168 33.1183Z" fill="#80CDD7"/>
<path id="Vector_18" d="M106.341 29.4113C106.08 29.2723 105.775 29.1843 105.394 29.2413C97.6968 30.3953 89.9358 31.0123 82.1728 31.0893C81.1258 31.0993 80.6308 31.9213 80.6718 32.7143C80.6598 32.9583 80.6918 33.2143 80.8368 33.4843C84.7398 40.6973 89.1368 47.7773 94.0198 54.6703C93.9988 55.6023 95.0778 56.2133 96.0858 56.1113C97.0988 56.0493 98.0648 55.2733 97.8938 54.3593C101.607 46.7693 104.819 39.0763 107.523 31.3283C107.872 30.3153 107.163 29.5953 106.341 29.4113ZM103.69 32.5873C101.349 38.8003 98.6778 44.9703 95.6778 51.0673C91.7378 45.5303 88.1158 39.8683 84.8138 34.1123C91.1218 33.9543 97.4238 33.4463 103.69 32.5873Z" fill="#303E5C"/>
<path id="Vector_19" d="M61.1719 32.0423C68.5509 32.8883 75.9749 33.2473 83.3899 33.1203C79.8029 40.1733 75.7529 47.1123 71.2519 53.8933C67.4269 46.7083 64.0659 39.4113 61.1719 32.0423Z" fill="#FDB151"/>
<path id="Vector_20" d="M84.2699 31.3663C84.0299 31.1923 83.7399 31.0673 83.3559 31.0733C75.5929 31.2063 67.8239 30.8003 60.1039 29.8543C59.0609 29.7273 58.4629 30.4753 58.3979 31.2683C58.3529 31.5083 58.3519 31.7663 58.4609 32.0513C61.3889 39.7153 64.8229 47.3113 68.7569 54.7873C68.6139 55.7053 69.6039 56.4533 70.6169 56.4843C71.6269 56.5563 72.6869 55.9143 72.6369 54.9843C77.3129 47.9493 81.4989 40.7443 85.1849 33.4183C85.6649 32.4623 85.0579 31.6573 84.2699 31.3663ZM81.2319 34.1653C78.1009 40.0173 74.6479 45.7823 70.8749 51.4333C67.6979 45.4273 64.8489 39.3393 62.3269 33.1993C68.6099 33.8703 74.9209 34.1923 81.2319 34.1653Z" fill="#303E5C"/>
<path id="Vector_21" d="M127.349 26.5603C134.545 24.4963 141.639 21.9453 148.579 18.9103C147.909 26.8343 146.773 34.8223 145.165 42.8323C138.82 37.6853 132.875 32.2473 127.349 26.5603Z" fill="#80CDD7"/>
<path id="Vector_22" d="M160.934 1.51129C157.678 6.49029 154.512 14.3473 148.659 16.9393C148.385 16.8883 148.088 16.8923 147.76 17.0373C147.268 17.2503 146.771 17.4413 146.28 17.6523C146.226 17.6623 146.176 17.6793 146.122 17.6873C145.823 17.7323 145.61 17.8533 145.434 18.0033C138.909 20.7393 132.261 23.0733 125.516 24.9523C124.497 25.2333 124.228 26.1553 124.471 26.9133C124.524 27.1513 124.621 27.3903 124.832 27.6123C130.497 33.5633 136.618 39.2513 143.174 44.6263C143.393 45.5303 144.605 45.8373 145.568 45.4723C146.542 45.1463 147.288 44.1403 146.883 43.3023C148.484 35.3633 149.606 27.4483 150.281 19.5973C156.559 16.5953 160.024 8.50528 163.585 3.06028C164.671 1.39728 162.012 -0.137715 160.934 1.51129ZM143.864 40.7063C138.58 36.3973 133.577 31.8783 128.868 27.1813C134.981 25.3783 141.017 23.2263 146.946 20.7243C146.252 27.3543 145.225 34.0223 143.864 40.7063Z" fill="#303E5C"/>
<path id="Vector_23" d="M105.371 31.3153C112.726 30.2253 120.028 28.6553 127.226 26.5943C125.549 34.3463 123.403 42.1023 120.783 49.8193C115.215 43.8703 110.072 37.6863 105.371 31.3153Z" fill="#FDB151"/>
<path id="Vector_24" d="M127.631 24.6693C127.352 24.5653 127.034 24.5213 126.663 24.6263C119.129 26.7803 111.48 28.3973 103.774 29.4783C102.734 29.6233 102.349 30.4993 102.489 31.2833C102.51 31.5273 102.574 31.7753 102.753 32.0253C107.56 38.6733 112.845 45.1273 118.594 51.3303C118.693 52.2563 119.844 52.7233 120.836 52.4903C121.837 52.2973 122.699 51.4003 122.411 50.5153C125.136 42.5073 127.349 34.4563 129.055 26.4133C129.275 25.3643 128.475 24.7453 127.631 24.6693ZM125.392 28.1673C123.854 34.6363 121.986 41.1033 119.783 47.5403C115.146 42.5613 110.812 37.4153 106.788 32.1343C113.04 31.1613 119.252 29.8413 125.392 28.1673Z" fill="#303E5C"/>
</g>
</g>
</svg>
