<svg width="134" height="100" viewBox="0 0 134 100" fill="none" xmlns="http://www.w3.org/2000/svg">
<g id="gift">
<g id="Group">
<path id="Vector" d="M64.296 23.007H2.33496V31.316H6.93896V81.125H59.117V31.316H64.296V23.007Z" fill="#FF7886"/>
<path id="Vector_2" d="M27.5609 22.528H36.098V81.125L27.849 81.132L27.5609 22.528Z" fill="#FDB151"/>
<path id="Vector_3" d="M65.831 30.798V22.24C65.831 20.96 64.5539 20.521 63.6469 20.897H39.38C46.376 17.394 54.276 10.821 49.174 3.65501C45.95 -0.871991 39.771 0.00200725 35.852 3.03301C31.904 6.08901 30.4019 10.452 30.3629 15.057C26.2849 11.95 19.851 9.81501 17.283 13.758C15.631 16.293 17.0569 19.249 19.2039 20.896H1.95096C1.41296 20.896 1.03398 21.131 0.789978 21.461C0.459978 21.707 0.224976 22.085 0.224976 22.623V31.447C0.224976 32.469 1.04296 32.953 1.83496 32.919C1.93796 32.94 2.02598 32.982 2.14398 32.982H5.08496V79.149C5.08496 79.344 5.13596 79.504 5.18896 79.661H5.08496C3.10596 79.661 3.10596 82.73 5.08496 82.73H60.3319C62.1169 82.73 62.277 80.256 60.844 79.764V32.982H64.489C65.77 32.983 66.209 31.705 65.831 30.798ZM36.8109 6.20201C40.0029 3.06201 46.0439 2.07701 47.6649 7.34901C48.7159 10.765 44.28 14.116 41.966 15.759C39.53 17.487 36.7689 18.932 33.9229 19.868C32.8899 15.025 33.1019 9.85201 36.8109 6.20201ZM19.82 15.661C20.373 12.394 28.79 17.53 30.638 19.714C26.604 20.062 19.039 20.256 19.82 15.661ZM26.697 79.662H8.05096C8.10396 79.506 8.15497 79.345 8.15497 79.15V32.983H26.698V79.662H26.697ZM26.697 29.914H3.29398V23.967H26.697V29.914ZM34.562 79.662H29.766V32.983H34.562V79.662ZM34.562 29.914H29.766V23.967H34.562V29.914ZM57.774 79.662H37.631V32.983H57.774V79.662ZM62.762 29.914H37.632V23.967H62.762V29.914Z" fill="#303E5C"/>
</g>
<g id="Group_2">
<path id="Vector_4" d="M116.474 39.554H54.5129V47.862H59.1169V97.67H111.295V47.862H116.474V39.554Z" fill="#FCA7AD"/>
<path id="Vector_5" d="M79.7379 39.074H88.275V97.67L80.0259 97.678L79.7379 39.074Z" fill="#80CDD7"/>
<path id="Vector_6" d="M121.379 19.756C116.866 19.404 113.033 22.348 110.193 25.458C107.925 27.939 106.404 30.596 103.435 32.458C101.359 33.761 98.8909 34.293 96.3549 34.562C101.496 30.878 105.282 25.719 101.352 20.203C98.1279 15.675 91.949 16.55 88.03 19.581C84.082 22.637 82.58 27 82.541 31.605C78.463 28.498 72.0289 26.363 69.4609 30.307C67.8089 32.842 69.236 35.798 71.382 37.444H54.129C53.591 37.444 53.212 37.679 52.968 38.009C52.638 38.255 52.403 38.634 52.403 39.171V47.995C52.403 49.017 53.2209 49.501 54.0129 49.467C54.1159 49.488 54.204 49.53 54.322 49.53H57.2629V95.697C57.2629 95.892 57.3139 96.052 57.3669 96.209H57.2629C55.2839 96.209 55.2839 99.278 57.2629 99.278H112.51C114.295 99.278 114.455 96.803 113.022 96.312V49.529H116.667C117.948 49.529 118.388 48.251 118.01 47.344V38.786C118.01 37.506 116.733 37.067 115.826 37.443H95.9189C100.409 36.894 104.633 35.839 108.401 32.546C113.099 28.441 114.005 23.487 121.38 22.825C128.508 22.185 130.549 30.816 130.862 36.051C130.98 38.017 134.05 38.03 133.931 36.051C133.449 28.008 130.245 20.446 121.379 19.756ZM71.9979 32.207C72.5429 28.986 80.7169 33.927 82.7209 36.16C82.5009 36.217 82.269 36.255 82.056 36.321C77.904 36.615 71.2639 36.527 71.9979 32.207ZM55.4719 46.459V40.512H75.918C75.107 41.528 74.4029 42.697 73.8099 44.019C73.4559 44.807 73.179 45.624 72.952 46.459H55.4719ZM78.8749 96.208H60.2289C60.2819 96.051 60.3329 95.891 60.3329 95.696V49.529H72.3419C72.1519 50.898 72.0389 52.279 71.9459 53.629C71.7749 56.136 71.842 58.671 71.778 61.182C71.73 63.046 69.644 69.508 66.965 65.011C65.953 63.313 63.2989 64.856 64.3159 66.561C67.3689 71.684 71.482 70.236 73.817 65.32C75.812 61.12 75.232 54.9 75.791 49.529H78.877V96.208H78.8749ZM76.2869 46.459C76.7579 44.463 77.5379 42.703 78.8749 41.368V46.459H76.2869ZM86.7399 96.208H81.9439V49.529H86.7399V96.208ZM86.7399 46.459H81.9439V40.512H86.7399V46.459ZM109.952 96.208H89.8099V49.529H109.953V96.208H109.952ZM114.939 40.513V46.46H89.809V40.513H114.939ZM94.1439 32.305C92.7059 33.326 91.1439 34.23 89.5269 35.007C89.1719 35.034 88.8099 35.056 88.4669 35.093C87.8359 35.16 87.428 35.54 87.205 36C87.185 36.007 87.1659 36.014 87.1459 36.021C86.9049 35.806 86.5899 35.656 86.1649 35.668C86.0979 35.67 86.0369 35.683 85.9719 35.685C85.1129 31.057 85.464 26.215 88.989 22.747C92.181 19.607 98.222 18.622 99.843 23.894C100.894 27.311 96.4579 30.662 94.1439 32.305Z" fill="#303E5C"/>
</g>
</g>
</svg>
