<svg xmlns="http://www.w3.org/2000/svg" xmlns:xlink="http://www.w3.org/1999/xlink" viewBox="0 0 500 500"><defs><clipPath id="clip-path--inject-1--inject-23"><path d="M178.28,234.28s-25.56,6-31.38,7.55-10.45,25-11,34.67-5.62,75.73-8,89.87-6.19,38.93-6.19,38.93H266.4l-3.48-60s2.71,6.78,3.68,8.52,11.42,4.84,17.82,4.45S297.2,355.91,297.2,347s-8.72-22.66-14.14-35.83-11.81-41.06-19.76-53.26S249,241.64,242.58,239.12s-8.52-2.32-11.81-3.29-29.44-4.26-35.06-4.26S178.28,234.28,178.28,234.28Z" style="fill:#92E3A9;stroke:#263238;stroke-linecap:round;stroke-linejoin:round"></path></clipPath><clipPath id="clip-path-2--inject-1--inject-23"><path d="M204,216.46s-5.62-1.55-8.91-.58-6.39,5-13.36,11.62-9.49,7.55-9.49,10.65,1.55,29.44,1,34.67-.58,8.33-.58,8.33l20.92-3.87-12.39,13s7.55,6.78,15.88,10.27S222.25,315,222.25,315l-2.14,15.3s10.08-17.81,11.63-21.88,18.39-31.38,18.39-31.38l-7-12.2L255,261.59S245.68,249,240.45,238s-9.88-14.91-18.4-18.79S204,216.46,204,216.46Z" style="fill:#92E3A9;stroke:#263238;stroke-linecap:round;stroke-linejoin:round"></path></clipPath><clipPath id="clip-path-3--inject-1--inject-23"><path d="M265.59,164.72c-.29,1.23-.93,2.3-1.36,4a44.28,44.28,0,0,0-1.31,6.85c-.39,4.45-1,16.07-3.68,24s-7.17,19.18-11,26.15-9.69,12.78-17.63,11.81-10.26-2.13-16.85-10.07-8.91-12.2-9.87-15.88a48.44,48.44,0,0,1-1-9.68s-2.52-18.6.58-27.51,7.94-25.17,23.63-29.05,32,3.1,34.47,6.59a27.43,27.43,0,0,1,4,9.8A6.19,6.19,0,0,1,265.59,164.72Z" style="fill:#fff;stroke:#263238;stroke-linecap:round;stroke-linejoin:round"></path></clipPath><clipPath id="clip-path-4--inject-1--inject-23"><path d="M230.57,237.57c7.94,1,13.75-4.84,17.63-11.81,3.63-6.55,7.78-16.85,10.52-24.66-5.7.29-20.94.76-30.86-1.88-12.39-3.29-16.85-9.49-20-12.2a52.67,52.67,0,0,1-5.69-6.35c-.05.42-.08.84-.12,1.27,2,2.73,11.15,15.4,12,19,1,4.06-1.74,10.26-4.26,11.62s-4.84-5.62-5.62-7.36-1.35-3.29-1.35-3.29a57.88,57.88,0,0,0,.54,7.54c.11.71.25,1.42.43,2.14,1,3.68,3.29,7.94,9.87,15.88S222.63,236.6,230.57,237.57Z" style="fill:#92E3A9;stroke:#263238;stroke-linecap:round;stroke-linejoin:round"></path></clipPath></defs><g id="background-simple--inject-1--inject-23"><path d="M438.43,255.71c-7.14,44.68-37.77,84-73.37,107.15-27.64,18-59.93,23.69-94,20.57-32.32-3-63.46-12.3-93.07,1.23-23.25,10.62-49.12,24.25-76,6.66C88.63,382.53,78.09,369,70,354.57,44.11,308.77,40.69,255.21,66.61,216c22.21-33.6,59.55-55.48,98.83-61.4a128.83,128.83,0,0,1,22.79-1.43c20.15.57,42.62,3.41,61.71-3.43,22.49-8.06,34.79-29.12,54.16-41.71,20-13,44.72-8,66.11,7.14C415,146.77,447,201.86,438.43,255.71Z" style="fill:#92E3A9"></path><path d="M438.43,255.71c-7.14,44.68-37.77,84-73.37,107.15-27.64,18-59.93,23.69-94,20.57-32.32-3-63.46-12.3-93.07,1.23-23.25,10.62-49.12,24.25-76,6.66C88.63,382.53,78.09,369,70,354.57,44.11,308.77,40.69,255.21,66.61,216c22.21-33.6,59.55-55.48,98.83-61.4a128.83,128.83,0,0,1,22.79-1.43c20.15.57,42.62,3.41,61.71-3.43,22.49-8.06,34.79-29.12,54.16-41.71,20-13,44.72-8,66.11,7.14C415,146.77,447,201.86,438.43,255.71Z" style="fill:#fff;opacity:0.7000000000000001"></path></g><g id="Shelf--inject-1--inject-23"><rect x="109.89" y="99.14" width="295.6" height="131.77" style="fill:none;stroke:#263238;stroke-linecap:round;stroke-linejoin:round"></rect><line x1="208.54" y1="230.52" x2="208.54" y2="99.12" style="fill:none;stroke:#263238;stroke-linecap:round;stroke-linejoin:round"></line><line x1="306.84" y1="230.52" x2="306.84" y2="99.12" style="fill:none;stroke:#263238;stroke-linecap:round;stroke-linejoin:round"></line><rect x="201.02" y="157.41" width="5.02" height="15.06" style="fill:#263238"></rect><rect x="211.06" y="157.41" width="5.02" height="15.06" style="fill:#263238"></rect><rect x="298.94" y="157.41" width="5.02" height="15.06" style="fill:#263238"></rect><rect x="308.98" y="157.41" width="5.02" height="15.06" style="fill:#263238"></rect></g><g id="Plants--inject-1--inject-23"><path d="M109,204.38s0-5.19-7.26-12.45-11.93-11.41-11.93-11.41-3.63,11.93,3.11,19.19a128,128,0,0,0,16.08,14Z" style="fill:#92E3A9"></path><path d="M98.42,236.77s0-5.19-7.26-12.45-11.93-11.41-11.93-11.41-3.63,11.93,3.11,19.19a127.61,127.61,0,0,0,16.08,14Z" style="fill:#92E3A9"></path><path d="M108.51,213.21s.55-5.16,8.53-11.61,13.07-10.09,13.07-10.09,2.35,12.25-5.12,18.76a127.4,127.4,0,0,1-17.47,12.23Z" style="fill:#92E3A9"></path><path d="M95.78,251.47s1.08-5.07,9.7-10.65,14.06-8.66,14.06-8.66,1,12.43-7.06,18.11A127.87,127.87,0,0,1,93.82,260.6Z" style="fill:#92E3A9"></path><path d="M98.17,293.18s0-5.18,7.26-12.45,11.93-11.41,11.93-11.41,3.63,11.93-3.11,19.19a126.84,126.84,0,0,1-16.08,14Z" style="fill:#92E3A9"></path><path d="M98.05,303.36s.73-5.13-5.42-13.35-10.19-13-10.19-13-5.29,11.29.35,19.44a128.75,128.75,0,0,0,13.93,16.15Z" style="fill:#92E3A9"></path><path d="M90.89,333.54s0-5.19,7.26-12.45,11.93-11.41,11.93-11.41,3.63,11.93-3.11,19.19a128.55,128.55,0,0,1-16.08,14Z" style="fill:#92E3A9"></path><path d="M95.74,360.9s-1.32-5,3.87-13.89S108.26,333,108.26,333s6.53,10.62,1.85,19.36a127.3,127.3,0,0,1-12,17.62Z" style="fill:#92E3A9"></path><path d="M109.62,203.05a145.12,145.12,0,0,1-2,16.1c-2.87,14.84-10,24.4-12.92,37.8s5.38,30.66,3.17,47.86-8.91,26.78-7,38.26,12.19,43.7,12.19,43.7" style="fill:none;stroke:#263238;stroke-linecap:round;stroke-linejoin:round;stroke-width:0.75px"></path><line x1="108.44" y1="216.66" x2="116.26" y2="210.65" style="fill:none;stroke:#263238;stroke-linecap:round;stroke-linejoin:round;stroke-width:0.75px"></line><line x1="108.8" y1="209.74" x2="105.52" y2="203.92" style="fill:none;stroke:#263238;stroke-linecap:round;stroke-linejoin:round;stroke-width:0.75px"></line><path d="M95.15,256.34s6.55-4.92,13.29-9.83" style="fill:none;stroke:#263238;stroke-linecap:round;stroke-linejoin:round;stroke-width:0.75px"></path><path d="M98.08,245.19a101.76,101.76,0,0,0-11.3-16.88" style="fill:none;stroke:#263238;stroke-linecap:round;stroke-linejoin:round;stroke-width:0.75px"></path><path d="M98.43,300.56a80.81,80.81,0,0,1,14-18.74" style="fill:none;stroke:#263238;stroke-linecap:round;stroke-linejoin:round;stroke-width:0.75px"></path><path d="M97.15,307.84a91.28,91.28,0,0,0-7.1-13.47c-3.82-5.64-4.36-6.37-4.36-6.37" style="fill:none;stroke:#263238;stroke-linecap:round;stroke-linejoin:round;stroke-width:0.75px"></path><path d="M90.89,343.07a86.67,86.67,0,0,1,5.9-11.93,75.79,75.79,0,0,1,7.64-10" style="fill:none;stroke:#263238;stroke-linecap:round;stroke-linejoin:round;stroke-width:0.75px"></path><path d="M98.1,369.93a22.22,22.22,0,0,1,2-11.49c2.73-5.28,5.83-12.2,7.1-14.93" style="fill:none;stroke:#263238;stroke-linecap:round;stroke-linejoin:round;stroke-width:0.75px"></path><path d="M61.41,273.67s-.56-3.25,3.2-8.59,6.24-8.45,6.24-8.45,3.58,7.09.14,12.37a80.71,80.71,0,0,1-8.57,10.53Z" style="fill:#92E3A9"></path><path d="M71.54,292.84s-.57-3.25,3.2-8.59S81,275.8,81,275.8s3.57,7.09.13,12.37a81.05,81.05,0,0,1-8.56,10.53Z" style="fill:#92E3A9"></path><path d="M62.65,279.17s-.9-3.18-6.61-6.36-9.29-4.91-9.29-4.91-.14,7.94,5.25,11.21a81.06,81.06,0,0,0,12.28,5.77Z" style="fill:#92E3A9"></path><path d="M74.79,301.77s-1.23-3.06-7.24-5.62-9.76-3.9-9.76-3.9.69,7.9,6.4,10.59A82.06,82.06,0,0,0,77,307.29Z" style="fill:#92E3A9"></path><path d="M77.82,328.19s-.56-3.25-5.91-7-8.72-5.86-8.72-5.86-1,7.88,4,11.7a81.83,81.83,0,0,0,11.6,7Z" style="fill:#92E3A9"></path><path d="M79,334.56s-1-3.14,2-9,5-9.25,5-9.25,4.54,6.5,1.89,12.23a81.55,81.55,0,0,1-7,11.63Z" style="fill:#92E3A9"></path><path d="M88.12,360.8s.37-3.28,5.49-7.34,8.37-6.35,8.37-6.35,1.43,7.8-3.36,11.91a81,81,0,0,1-11.18,7.68Z" style="fill:#92E3A9"></path><path d="M86.77,352.71s-.57-3.26-5.91-7-8.72-5.86-8.72-5.86-1,7.87,4,11.7a80.68,80.68,0,0,0,11.6,7Z" style="fill:#92E3A9"></path><path d="M86.7,370.39s.27-3.29-3.94-8.29-7-7.87-7-7.87-3,7.37.94,12.33a81.69,81.69,0,0,0,9.44,9.75Z" style="fill:#92E3A9"></path><path d="M60.85,272.91a95,95,0,0,0,3,9.89c3.41,9,8.95,14.21,12.2,22.3s0,19.8,3.21,30.35,8.5,15.83,8.54,23.24-2.88,28-2.88,28" style="fill:none;stroke:#263238;stroke-linecap:round;stroke-linejoin:round;stroke-width:0.75px"></path><line x1="63.07" y1="281.32" x2="57.51" y2="278.4" style="fill:none;stroke:#263238;stroke-linecap:round;stroke-linejoin:round;stroke-width:0.75px"></line><line x1="62.09" y1="277.02" x2="63.52" y2="273.01" style="fill:none;stroke:#263238;stroke-linecap:round;stroke-linejoin:round;stroke-width:0.75px"></line><path d="M75.71,304.76s-4.64-2.37-9.4-4.72" style="fill:none;stroke:#263238;stroke-linecap:round;stroke-linejoin:round;stroke-width:0.75px"></path><path d="M72.51,297.69a75.92,75.92,0,0,1,5.41-11.42" style="fill:none;stroke:#263238;stroke-linecap:round;stroke-linejoin:round;stroke-width:0.75px"></path><path d="M78.46,332.85a51.49,51.49,0,0,0-10.82-10.24" style="fill:none;stroke:#263238;stroke-linecap:round;stroke-linejoin:round;stroke-width:0.75px"></path><path d="M80.05,337.27a57.63,57.63,0,0,1,3-9.21c1.78-4,2-4.47,2-4.47" style="fill:none;stroke:#263238;stroke-linecap:round;stroke-linejoin:round;stroke-width:0.75px"></path><path d="M87.55,364.3a48.32,48.32,0,0,1,6-6.2,31.89,31.89,0,0,0,3.88-3.38" style="fill:none;stroke:#263238;stroke-linecap:round;stroke-linejoin:round;stroke-width:0.75px"></path><path d="M87.8,358.69a56.21,56.21,0,0,0-5-6.85,48.83,48.83,0,0,0-5.88-5.44" style="fill:none;stroke:#263238;stroke-linecap:round;stroke-linejoin:round;stroke-width:0.75px"></path><path d="M86.19,376.31a14.14,14.14,0,0,0-2.47-7c-2.29-3-5-7-6.08-8.59" style="fill:none;stroke:#263238;stroke-linecap:round;stroke-linejoin:round;stroke-width:0.75px"></path><path d="M75.76,384h35.41a0,0,0,0,1,0,0V402.9a2.49,2.49,0,0,1-2.49,2.49H78.25a2.49,2.49,0,0,1-2.49-2.49V384A0,0,0,0,1,75.76,384Z" style="fill:#263238;stroke:#263238;stroke-linecap:round;stroke-linejoin:round"></path></g><g id="Device--inject-1--inject-23"><polygon points="395.6 404.78 367.24 404.78 362.65 389.76 391.01 389.76 395.6 404.78" style="fill:#263238;stroke:#263238;stroke-linecap:round;stroke-linejoin:round"></polygon><polygon points="416.74 392.26 321.94 392.26 329.17 307.82 423.96 307.82 416.74 392.26" style="fill:#263238;stroke:#263238;stroke-linecap:round;stroke-linejoin:round"></polygon><polygon points="412.79 392.26 318 392.26 325.23 307.82 420.02 307.82 412.79 392.26" style="fill:#5c5c5c;stroke:#263238;stroke-linecap:round;stroke-linejoin:round"></polygon><polygon points="407.59 387.25 324.06 387.25 330.43 312.84 413.96 312.84 407.59 387.25" style="fill:#263238;stroke:#263238;stroke-linecap:round;stroke-linejoin:round"></polygon><line x1="394.07" y1="374.41" x2="403.51" y2="374.41" style="fill:none;stroke:#fff;stroke-linecap:round;stroke-linejoin:round"></line><line x1="393.71" y1="376.87" x2="403.15" y2="376.87" style="fill:none;stroke:#fff;stroke-linecap:round;stroke-linejoin:round"></line><line x1="393.36" y1="379.34" x2="402.8" y2="379.34" style="fill:none;stroke:#fff;stroke-linecap:round;stroke-linejoin:round"></line><line x1="393" y1="381.8" x2="402.44" y2="381.8" style="fill:none;stroke:#fff;stroke-linecap:round;stroke-linejoin:round"></line><line x1="333.05" y1="349.58" x2="342.49" y2="349.58" style="fill:none;stroke:#fff;stroke-linecap:round;stroke-linejoin:round"></line><line x1="332.69" y1="352.04" x2="342.13" y2="352.04" style="fill:none;stroke:#fff;stroke-linecap:round;stroke-linejoin:round"></line><line x1="332.33" y1="354.51" x2="341.77" y2="354.51" style="fill:none;stroke:#fff;stroke-linecap:round;stroke-linejoin:round"></line><line x1="331.97" y1="356.97" x2="341.41" y2="356.97" style="fill:none;stroke:#fff;stroke-linecap:round;stroke-linejoin:round"></line><polyline points="379.75 340.76 381.8 353.69 389.8 353.69" style="fill:none;stroke:#fff;stroke-linecap:round;stroke-linejoin:round"></polyline><line x1="341.99" y1="371.54" x2="357.58" y2="371.54" style="fill:none;stroke:#fff;stroke-linecap:round;stroke-linejoin:round"></line><path d="M363.74,337.79a6.49,6.49,0,0,0-.88-.16l-.85-.14a10,10,0,0,1-3.58-1.31,7.31,7.31,0,0,1-1.08-.9,8.85,8.85,0,0,0,.16-1.64c0-.08,0-.16,0-.24l.71-.28a5.58,5.58,0,0,1,1.7-.4,9.66,9.66,0,0,1,1.52.06,4.37,4.37,0,0,0,.88.08.67.67,0,1,0-.11-1.29,4.64,4.64,0,0,0-.64.17l-.61.17a7.42,7.42,0,0,1-2.79.24,4.78,4.78,0,0,1-.81-.2,8.68,8.68,0,0,0-.65-2c.17-.19.44-.47.87-.92a7.16,7.16,0,0,1,1.86-1.46,11.86,11.86,0,0,1,1.91-.8,5,5,0,0,0,1.13-.42.9.9,0,1,0-.87-1.52,6.33,6.33,0,0,0-.7.58l-.65.55a10,10,0,0,1-3.3,1.91,7.72,7.72,0,0,1-1.38.25,9,9,0,0,0-1.68-1.58c.05-.17.13-.4.24-.72a5.09,5.09,0,0,1,.78-1.55,9.64,9.64,0,0,1,1-1.11,3.7,3.7,0,0,0,.62-.63.75.75,0,0,0-.05-1,.75.75,0,0,0-1,.3,6.36,6.36,0,0,0-.28.59L355,323a7.18,7.18,0,0,1-1.59,2.28,6.28,6.28,0,0,1-.75.54,8.59,8.59,0,0,0-3.24-.85c-.06-.22-.16-.54-.31-1.05a6.46,6.46,0,0,1-.3-2.14,11.67,11.67,0,0,1,.23-1.86,4.53,4.53,0,0,0,.19-1.09.82.82,0,1,0-1.59,0,5.47,5.47,0,0,0,.13.81c0,.26.09.51.15.77a9.2,9.2,0,0,1,0,3.47,6.77,6.77,0,0,1-.43,1.18,8.68,8.68,0,0,0-2.16.63c-.1-.11-.21-.23-.33-.38a6.94,6.94,0,0,1-1.3-2,12.43,12.43,0,0,1-.63-2,5.2,5.2,0,0,0-.32-1.17.9.9,0,1,0-1.59.74,6.46,6.46,0,0,0,.51.74c.16.24.33.47.5.7a10.21,10.21,0,0,1,1.62,3.46q.06.38.09.69a8.35,8.35,0,0,0-1.41,1.24l-.64-.28a4.61,4.61,0,0,1-1.38-.86,8.62,8.62,0,0,1-1-1,3,3,0,0,0-.53-.64.62.62,0,1,0-.77.92,4.07,4.07,0,0,0,.53.31c.17.11.34.2.51.29a7,7,0,0,1,2,1.68c.17.26.3.48.4.67a8.69,8.69,0,0,0-1,1.93h-.42a7.17,7.17,0,0,1-2.36-.28,12.26,12.26,0,0,1-1.92-.78,4.92,4.92,0,0,0-1.09-.51.9.9,0,1,0-.45,1.69,5.27,5.27,0,0,0,.89.09c.28,0,.57,0,.86.06a10.39,10.39,0,0,1,3.68,1c.16.09.29.18.42.27a10,10,0,0,0-.11,1.35c0,.24,0,.49,0,.73l-.72.36a5.14,5.14,0,0,1-1.65.53,8.34,8.34,0,0,1-1.5.08,3.7,3.7,0,0,0-.88,0c-.45.08-.76.42-.7.77a.74.74,0,0,0,.92.49,5.11,5.11,0,0,0,.62-.22l.59-.22a7.34,7.34,0,0,1,2.74-.48,4.7,4.7,0,0,1,.82.13,8.61,8.61,0,0,0,.88,2.15l-.78,1a7.39,7.39,0,0,1-1.74,1.63,12.14,12.14,0,0,1-1.82,1,5.5,5.5,0,0,0-1.1.51.9.9,0,1,0,1,1.44,6.33,6.33,0,0,0,.64-.63l.6-.62a10.17,10.17,0,0,1,3.13-2.18,6.86,6.86,0,0,1,1.35-.37,8.11,8.11,0,0,0,1,.87c-.05.19-.1.43-.18.75a6,6,0,0,1-.74,1.85,10.91,10.91,0,0,1-1.05,1.38,4.34,4.34,0,0,0-.65.78.76.76,0,1,0,1.27.74,4.71,4.71,0,0,0,.27-.71l.24-.68a8.5,8.5,0,0,1,1.6-2.78c.2-.2.39-.36.56-.5a8.65,8.65,0,0,0,2.72.86c0,.16.07.35.13.61a5.43,5.43,0,0,1,.09,1.76,9.41,9.41,0,0,1-.32,1.49,4.37,4.37,0,0,0-.23.86.77.77,0,0,0,.57.89.76.76,0,0,0,.72-.77,3.78,3.78,0,0,0-.05-.67c0-.21,0-.42-.06-.63a7.72,7.72,0,0,1,.24-2.81c.1-.26.19-.46.28-.65a8.42,8.42,0,0,0,2.52-.41l.12.17a6.94,6.94,0,0,1,1.12,2.09,11.59,11.59,0,0,1,.46,2,5.4,5.4,0,0,0,.21,1.19.9.9,0,1,0,1.65-.6,5.51,5.51,0,0,0-.44-.79c-.14-.25-.29-.49-.44-.74a10.14,10.14,0,0,1-1.31-3.58c0-.12,0-.22,0-.33a8.88,8.88,0,0,0,1.55-1l1.1.6a7.34,7.34,0,0,1,1.9,1.42,13.13,13.13,0,0,1,1.26,1.63,4.92,4.92,0,0,0,.7,1,1,1,0,0,0,1.41.17,1,1,0,0,0-.17-1.41,6.41,6.41,0,0,0-.73-.52l-.71-.49a10.16,10.16,0,0,1-2.7-2.69,8.3,8.3,0,0,1-.6-1.28,8.19,8.19,0,0,0,.83-1.4l1.25.08a7,7,0,0,1,2.33.49,11.81,11.81,0,0,1,1.84.94,5.4,5.4,0,0,0,1,.6.9.9,0,1,0,.6-1.65Z" style="fill:#92E3A9"></path><path d="M389.85,338a4.94,4.94,0,0,0-.65-.12l-.62-.1a7.4,7.4,0,0,1-2.62-.95,5,5,0,0,1-.78-.66,6.8,6.8,0,0,0,.12-1.21c0-.05,0-.11,0-.17l.52-.2a3.79,3.79,0,0,1,1.24-.29,6.75,6.75,0,0,1,1.1,0,2.86,2.86,0,0,0,.65.06.49.49,0,1,0-.08-.94,2.7,2.7,0,0,0-.47.12l-.44.12a5.3,5.3,0,0,1-2,.18,3,3,0,0,1-.59-.15,6.33,6.33,0,0,0-.48-1.43l.64-.67a5.37,5.37,0,0,1,1.36-1.07,9.94,9.94,0,0,1,1.39-.58,4.12,4.12,0,0,0,.83-.3.76.76,0,0,0,.39-1,.75.75,0,0,0-1-.14,5.08,5.08,0,0,0-.51.41l-.47.41a7.6,7.6,0,0,1-2.42,1.4,4.92,4.92,0,0,1-1,.17,6.71,6.71,0,0,0-1.23-1.15l.17-.52a3.71,3.71,0,0,1,.58-1.13,6.3,6.3,0,0,1,.73-.82,2.45,2.45,0,0,0,.46-.45.55.55,0,0,0,0-.76.56.56,0,0,0-.73.22,3.36,3.36,0,0,0-.2.43c-.07.14-.13.28-.19.42a5.13,5.13,0,0,1-1.17,1.66,4.07,4.07,0,0,1-.54.4,6.3,6.3,0,0,0-2.37-.62l-.22-.77a5,5,0,0,1-.23-1.56,7.67,7.67,0,0,1,.18-1.36,3.64,3.64,0,0,0,.14-.79.69.69,0,0,0-.59-.75.68.68,0,0,0-.58.75,3.7,3.7,0,0,0,.1.58c0,.19.07.38.1.57a6.53,6.53,0,0,1,0,2.53,4.24,4.24,0,0,1-.31.86,6.34,6.34,0,0,0-1.57.47l-.25-.28a5.58,5.58,0,0,1-.95-1.45,10.48,10.48,0,0,1-.46-1.44,3.44,3.44,0,0,0-.23-.85.74.74,0,0,0-.92-.47.75.75,0,0,0-.24,1,5.14,5.14,0,0,0,.37.54l.37.51a7.57,7.57,0,0,1,1.18,2.53c0,.18.05.34.07.5a6.86,6.86,0,0,0-1,.9l-.46-.2a3.43,3.43,0,0,1-1-.63,6.22,6.22,0,0,1-.7-.75,3,3,0,0,0-.39-.47.52.52,0,0,0-.71,0,.52.52,0,0,0,.14.7,3,3,0,0,0,.39.22c.12.08.25.15.38.22a5,5,0,0,1,1.46,1.22,4.1,4.1,0,0,1,.29.49,6.4,6.4,0,0,0-.7,1.41h-.31a5.47,5.47,0,0,1-1.72-.21,9.34,9.34,0,0,1-1.4-.57,3.24,3.24,0,0,0-.8-.37.66.66,0,1,0-.33,1.23,4.76,4.76,0,0,0,.66.07l.62.05a7.24,7.24,0,0,1,2.69.72c.12.06.21.13.31.19a6.37,6.37,0,0,0-.08,1c0,.19,0,.36,0,.54l-.52.26a3.7,3.7,0,0,1-1.2.39,6.76,6.76,0,0,1-1.1.06,2.74,2.74,0,0,0-.64,0c-.33.06-.56.31-.51.56a.54.54,0,0,0,.67.36,3.43,3.43,0,0,0,.45-.16l.43-.16a5.22,5.22,0,0,1,2-.35,4,4,0,0,1,.61.09,6,6,0,0,0,.63,1.57l-.57.72a5.5,5.5,0,0,1-1.26,1.19,9.47,9.47,0,0,1-1.34.7,4.13,4.13,0,0,0-.8.37.66.66,0,1,0,.74,1.05,4.08,4.08,0,0,0,.47-.46c.15-.14.29-.3.44-.45a7.18,7.18,0,0,1,2.28-1.59,4.85,4.85,0,0,1,1-.27,5.42,5.42,0,0,0,.72.63l-.13.55a4.36,4.36,0,0,1-.55,1.35,7.41,7.41,0,0,1-.76,1,3.29,3.29,0,0,0-.48.57.62.62,0,0,0,.13.86.63.63,0,0,0,.81-.32,4.6,4.6,0,0,0,.19-.52c.06-.16.12-.33.17-.5a6.12,6.12,0,0,1,1.17-2c.15-.15.29-.27.41-.37a6.35,6.35,0,0,0,2,.63c0,.11.05.26.09.44a3.65,3.65,0,0,1,.07,1.29,7.06,7.06,0,0,1-.23,1.09,2.66,2.66,0,0,0-.17.63.49.49,0,1,0,.94.08,2.59,2.59,0,0,0,0-.48c0-.16,0-.31,0-.47a5.37,5.37,0,0,1,.18-2.05,3.68,3.68,0,0,1,.2-.47,6.56,6.56,0,0,0,1.84-.3l.09.12a5.13,5.13,0,0,1,.82,1.53,9,9,0,0,1,.33,1.47,3.7,3.7,0,0,0,.16.87.74.74,0,0,0,.88.55.76.76,0,0,0,.32-1,5.24,5.24,0,0,0-.32-.57c-.11-.18-.22-.36-.32-.54a7.3,7.3,0,0,1-1-2.62c0-.08,0-.16,0-.24a6.52,6.52,0,0,0,1.13-.75l.8.43a5.58,5.58,0,0,1,1.39,1,9.78,9.78,0,0,1,.92,1.2,4.07,4.07,0,0,0,.51.72.66.66,0,1,0,.9-.91,5.08,5.08,0,0,0-.53-.38l-.52-.35a7.53,7.53,0,0,1-2-2,6,6,0,0,1-.44-.93,5.94,5.94,0,0,0,.61-1l.92.06a4.93,4.93,0,0,1,1.69.36,8.43,8.43,0,0,1,1.34.68,3.48,3.48,0,0,0,.77.44.66.66,0,1,0,.44-1.2Z" style="fill:#92E3A9"></path><path d="M347.89,373.43c-.15-.05-.32-.05-.47-.09l-.46-.07a5.41,5.41,0,0,1-1.91-.7,3.5,3.5,0,0,1-.57-.48,4.14,4.14,0,0,0,.09-.87c0-.05,0-.09,0-.13l.38-.15a2.88,2.88,0,0,1,.9-.21,4.36,4.36,0,0,1,.81,0,2.49,2.49,0,0,0,.47,0c.25,0,.43-.19.41-.38a.39.39,0,0,0-.47-.3c-.11,0-.22.06-.34.08l-.32.09a4,4,0,0,1-1.49.14,3.74,3.74,0,0,1-.43-.11,4.18,4.18,0,0,0-.35-1.05l.46-.49a4.08,4.08,0,0,1,1-.78,7.09,7.09,0,0,1,1-.43,2.29,2.29,0,0,0,.6-.22.53.53,0,0,0,.28-.7.55.55,0,0,0-.75-.11,3.57,3.57,0,0,0-.37.31l-.34.3a5.34,5.34,0,0,1-1.77,1,3.22,3.22,0,0,1-.73.13,4.8,4.8,0,0,0-.9-.84l.13-.38a2.61,2.61,0,0,1,.42-.82,3.86,3.86,0,0,1,.54-.6,2.57,2.57,0,0,0,.33-.33.35.35,0,1,0-.56-.39,1.77,1.77,0,0,0-.15.31c0,.1-.09.2-.14.31a3.89,3.89,0,0,1-.85,1.21,3.21,3.21,0,0,1-.4.29,4.57,4.57,0,0,0-1.72-.46c0-.11-.09-.28-.17-.55a3.58,3.58,0,0,1-.16-1.14,6.66,6.66,0,0,1,.12-1,2.29,2.29,0,0,0,.11-.58.5.5,0,0,0-.43-.54.49.49,0,0,0-.43.54,2,2,0,0,0,.08.43c0,.14,0,.28.07.41a4.85,4.85,0,0,1,0,1.86,4.16,4.16,0,0,1-.22.62,4.79,4.79,0,0,0-1.15.34l-.18-.2a3.71,3.71,0,0,1-.7-1.06,7.53,7.53,0,0,1-.33-1.05,2.58,2.58,0,0,0-.17-.62.56.56,0,0,0-.68-.35.55.55,0,0,0-.17.74,4,4,0,0,0,.27.4l.27.37a5.5,5.5,0,0,1,.86,1.84,2.93,2.93,0,0,1,0,.37,4.73,4.73,0,0,0-.75.66l-.34-.15a2.68,2.68,0,0,1-.74-.45,4.52,4.52,0,0,1-.51-.56,2.28,2.28,0,0,0-.29-.33.35.35,0,0,0-.51,0,.37.37,0,0,0,.1.51,2,2,0,0,0,.28.16l.28.16a3.58,3.58,0,0,1,1.07.89,4,4,0,0,1,.21.36,4.71,4.71,0,0,0-.51,1h-.23a3.57,3.57,0,0,1-1.25-.15,6,6,0,0,1-1-.41,3.19,3.19,0,0,0-.59-.28.48.48,0,1,0-.24.91,2.59,2.59,0,0,0,.48,0l.46,0a5.52,5.52,0,0,1,2,.52l.22.15a5.52,5.52,0,0,0-.06.72c0,.13,0,.26,0,.39l-.38.19a2.69,2.69,0,0,1-.88.28,3.55,3.55,0,0,1-.8,0,2.46,2.46,0,0,0-.47,0,.41.41,0,0,0-.37.42.4.4,0,0,0,.49.26,2.19,2.19,0,0,0,.33-.12l.31-.12a4,4,0,0,1,1.46-.26l.45.07a4.46,4.46,0,0,0,.46,1.15l-.42.52a3.68,3.68,0,0,1-.92.87,6.43,6.43,0,0,1-1,.51,2.91,2.91,0,0,0-.59.28.54.54,0,0,0-.22.72.55.55,0,0,0,.76,0,2.65,2.65,0,0,0,.34-.33l.32-.33a5.56,5.56,0,0,1,1.67-1.17,3.89,3.89,0,0,1,.72-.19,3.89,3.89,0,0,0,.53.46c0,.1-.06.23-.1.4a3.4,3.4,0,0,1-.39,1,6.72,6.72,0,0,1-.56.73,2.79,2.79,0,0,0-.35.42.4.4,0,1,0,.68.39,2.13,2.13,0,0,0,.14-.38c.05-.12.09-.24.13-.36a4.51,4.51,0,0,1,.85-1.48,3.05,3.05,0,0,1,.3-.26,4.8,4.8,0,0,0,1.45.45l.07.33a2.77,2.77,0,0,1,0,.93,5.42,5.42,0,0,1-.17.8,1.83,1.83,0,0,0-.12.46.4.4,0,0,0,.3.47c.19,0,.36-.17.38-.41a2.06,2.06,0,0,0,0-.35c0-.11,0-.23,0-.34a4.38,4.38,0,0,1,.13-1.5c.05-.14.11-.25.15-.34a4.88,4.88,0,0,0,1.34-.22l.07.09a4.09,4.09,0,0,1,.6,1.11,6.5,6.5,0,0,1,.24,1.08,2.68,2.68,0,0,0,.11.63.55.55,0,0,0,.65.4.54.54,0,0,0,.23-.72,3.42,3.42,0,0,0-.23-.42l-.24-.39a5.37,5.37,0,0,1-.69-1.91,1.09,1.09,0,0,1,0-.18,4.06,4.06,0,0,0,.82-.55l.59.32a4.09,4.09,0,0,1,1,.76,6.29,6.29,0,0,1,.67.87,3.34,3.34,0,0,0,.37.53.56.56,0,0,0,.76.09.55.55,0,0,0-.09-.75,3.16,3.16,0,0,0-.39-.28l-.38-.26a5.33,5.33,0,0,1-1.44-1.44,4.24,4.24,0,0,1-.32-.68,4,4,0,0,0,.44-.75l.67.05a3.75,3.75,0,0,1,1.24.26,6,6,0,0,1,1,.5,2.8,2.8,0,0,0,.56.32.48.48,0,1,0,.32-.88Z" style="fill:#92E3A9"></path><path d="M411.21,326.59a2.44,2.44,0,0,0-.47-.09l-.45-.07a5.27,5.27,0,0,1-1.91-.7,3.74,3.74,0,0,1-.58-.48,4.24,4.24,0,0,0,.09-.88.49.49,0,0,0,0-.12l.38-.15a2.88,2.88,0,0,1,.91-.21,4.42,4.42,0,0,1,.81,0,2.49,2.49,0,0,0,.47,0,.35.35,0,1,0-.06-.69,1.89,1.89,0,0,0-.34.09l-.33.09a3.8,3.8,0,0,1-1.49.13,3,3,0,0,1-.43-.11,4.69,4.69,0,0,0-.34-1l.46-.49a3.66,3.66,0,0,1,1-.78,6.49,6.49,0,0,1,1-.43,2.85,2.85,0,0,0,.6-.22.48.48,0,1,0-.46-.81,2.76,2.76,0,0,0-.37.31l-.35.29a5.43,5.43,0,0,1-1.76,1,3.38,3.38,0,0,1-.74.13,4.72,4.72,0,0,0-.89-.84l.12-.38a2.91,2.91,0,0,1,.42-.83,5,5,0,0,1,.54-.59,2.06,2.06,0,0,0,.33-.33.4.4,0,0,0,0-.56.41.41,0,0,0-.53.16c-.06.1-.09.22-.15.32l-.13.3a4.16,4.16,0,0,1-.85,1.22c-.16.13-.3.22-.4.29a4.57,4.57,0,0,0-1.73-.46c0-.12-.08-.29-.16-.56a3.58,3.58,0,0,1-.17-1.14,5.48,5.48,0,0,1,.13-1,2.82,2.82,0,0,0,.1-.58.44.44,0,1,0-.85,0,3,3,0,0,0,.07.43c0,.14.05.27.08.41a5.23,5.23,0,0,1,0,1.85,3.06,3.06,0,0,1-.23.63,4.49,4.49,0,0,0-1.15.34l-.18-.2a4,4,0,0,1-.69-1.06,6.43,6.43,0,0,1-.34-1.05,2.66,2.66,0,0,0-.17-.63.48.48,0,1,0-.84.4,2.09,2.09,0,0,0,.27.39,4.44,4.44,0,0,0,.27.38,5.61,5.61,0,0,1,.86,1.84c0,.13,0,.26,0,.37a4.67,4.67,0,0,0-.75.66l-.34-.15a2.61,2.61,0,0,1-.74-.46,4.43,4.43,0,0,1-.51-.55,1.81,1.81,0,0,0-.28-.34.37.37,0,0,0-.52,0,.36.36,0,0,0,.11.5,2.61,2.61,0,0,0,.28.17l.27.15a3.77,3.77,0,0,1,1.07.9,2.05,2.05,0,0,1,.21.36,4.63,4.63,0,0,0-.51,1h-.22a3.66,3.66,0,0,1-1.26-.15,6.44,6.44,0,0,1-1-.42,3.06,3.06,0,0,0-.58-.27.48.48,0,1,0-.25.91,3.88,3.88,0,0,0,.48,0l.46,0a5.32,5.32,0,0,1,2,.52l.23.14a4.37,4.37,0,0,0-.06.72c0,.13,0,.26,0,.39l-.38.19a2.58,2.58,0,0,1-.88.29,5.36,5.36,0,0,1-.8,0,1.93,1.93,0,0,0-.48,0c-.23,0-.4.23-.36.41a.38.38,0,0,0,.48.26,3.19,3.19,0,0,0,.33-.11l.32-.12a3.92,3.92,0,0,1,1.46-.26,3.4,3.4,0,0,1,.44.07,4.61,4.61,0,0,0,.46,1.15l-.41.52a3.71,3.71,0,0,1-.93.87,6.38,6.38,0,0,1-1,.51,3.83,3.83,0,0,0-.58.27.55.55,0,0,0-.22.73.54.54,0,0,0,.75,0,2.73,2.73,0,0,0,.34-.34l.33-.32a5.34,5.34,0,0,1,1.66-1.17,3.52,3.52,0,0,1,.72-.19,5.82,5.82,0,0,0,.53.46c0,.1-.05.23-.09.4a3.22,3.22,0,0,1-.4,1,5.13,5.13,0,0,1-.56.74,2.79,2.79,0,0,0-.35.42.4.4,0,1,0,.68.39,1.74,1.74,0,0,0,.14-.38c.05-.12.09-.24.13-.36a4.43,4.43,0,0,1,.86-1.48,3.45,3.45,0,0,1,.29-.27,4.53,4.53,0,0,0,1.46.46l.06.33a2.52,2.52,0,0,1,.05.93,4.38,4.38,0,0,1-.17.8,1.83,1.83,0,0,0-.12.46.36.36,0,1,0,.69.06,2,2,0,0,0,0-.35l0-.34a3.94,3.94,0,0,1,.13-1.5,3.05,3.05,0,0,1,.15-.35,4.23,4.23,0,0,0,1.34-.22l.07.09a3.81,3.81,0,0,1,.59,1.12,6.64,6.64,0,0,1,.25,1.07,2.77,2.77,0,0,0,.11.64.54.54,0,0,0,.64.4.55.55,0,0,0,.24-.72,3.5,3.5,0,0,0-.24-.42c-.07-.13-.15-.26-.23-.39a5.37,5.37,0,0,1-.7-1.92c0-.06,0-.11,0-.17a4.52,4.52,0,0,0,.82-.55l.59.32a3.69,3.69,0,0,1,1,.76,6.36,6.36,0,0,1,.68.87,3.16,3.16,0,0,0,.37.53.55.55,0,0,0,.75.09.56.56,0,0,0-.09-.76,2.7,2.7,0,0,0-.39-.27l-.38-.26a5.33,5.33,0,0,1-1.44-1.44,3.36,3.36,0,0,1-.31-.68,5.47,5.47,0,0,0,.44-.75l.67,0a4,4,0,0,1,1.23.26,7,7,0,0,1,1,.51,3.5,3.5,0,0,0,.56.32.48.48,0,1,0,.32-.88Z" style="fill:#92E3A9"></path><path d="M407.84,351.46a2,2,0,0,0-.34-.06l-.34-.06a4,4,0,0,1-1.41-.51,2.94,2.94,0,0,1-.42-.35,3.49,3.49,0,0,0,.06-.65v-.09l.28-.11a2.09,2.09,0,0,1,.67-.16,3.88,3.88,0,0,1,.59,0,1.38,1.38,0,0,0,.35,0,.29.29,0,0,0,.3-.28.29.29,0,0,0-.34-.22,2.44,2.44,0,0,0-.26.06l-.24.07a2.93,2.93,0,0,1-1.09.1,1.65,1.65,0,0,1-.32-.08,3.33,3.33,0,0,0-.26-.77l.34-.36a3,3,0,0,1,.74-.58,4.93,4.93,0,0,1,.75-.31,2.35,2.35,0,0,0,.44-.17.4.4,0,0,0,.21-.52.39.39,0,0,0-.55-.07,1.86,1.86,0,0,0-.27.22l-.26.22a4,4,0,0,1-1.3.75,3.18,3.18,0,0,1-.54.1,3.22,3.22,0,0,0-.66-.62l.09-.29a2.09,2.09,0,0,1,.31-.6,2.79,2.79,0,0,1,.4-.44,1.88,1.88,0,0,0,.24-.25.29.29,0,0,0,0-.4.29.29,0,0,0-.39.11,1.75,1.75,0,0,0-.11.24,2.14,2.14,0,0,0-.1.22,3,3,0,0,1-.63.9c-.11.09-.22.16-.29.21a3.42,3.42,0,0,0-1.28-.34c0-.08-.06-.21-.12-.41a2.74,2.74,0,0,1-.12-.84,4.41,4.41,0,0,1,.09-.73,1.63,1.63,0,0,0,.08-.43.32.32,0,1,0-.63,0,1.8,1.8,0,0,0,.06.32c0,.1,0,.2.05.3a3.51,3.51,0,0,1,0,1.37,2.53,2.53,0,0,1-.17.46,3.4,3.4,0,0,0-.84.25l-.14-.15a3.13,3.13,0,0,1-.51-.78,4.15,4.15,0,0,1-.24-.78,1.78,1.78,0,0,0-.13-.45.35.35,0,1,0-.62.29,2.51,2.51,0,0,0,.2.29l.19.27a4.22,4.22,0,0,1,.64,1.36,1.39,1.39,0,0,1,0,.27,3.64,3.64,0,0,0-.55.49l-.25-.11a1.73,1.73,0,0,1-.54-.34,2.86,2.86,0,0,1-.38-.4,1,1,0,0,0-.21-.25.27.27,0,0,0-.38,0,.28.28,0,0,0,.07.38,2.25,2.25,0,0,0,.21.12l.21.11a2.82,2.82,0,0,1,.78.67,1.53,1.53,0,0,1,.16.26,3.38,3.38,0,0,0-.38.76h-.16a2.82,2.82,0,0,1-.93-.11,4.93,4.93,0,0,1-.75-.31,2.39,2.39,0,0,0-.43-.2.41.41,0,0,0-.52.22.4.4,0,0,0,.34.45,2,2,0,0,0,.35,0l.34,0a3.9,3.9,0,0,1,1.45.39l.16.1a4.55,4.55,0,0,0,0,.53,2.81,2.81,0,0,0,0,.29l-.28.14a2.21,2.21,0,0,1-.65.21,3.82,3.82,0,0,1-.59,0,1.37,1.37,0,0,0-.35,0,.26.26,0,1,0,.09.5,1.7,1.7,0,0,0,.24-.09l.24-.09a3.14,3.14,0,0,1,1.07-.19,2.12,2.12,0,0,1,.33.05,3.51,3.51,0,0,0,.34.85l-.3.39a2.63,2.63,0,0,1-.69.63,4.84,4.84,0,0,1-.71.38,2.44,2.44,0,0,0-.43.2.36.36,0,1,0,.39.57,2,2,0,0,0,.25-.25l.24-.24a3.81,3.81,0,0,1,1.23-.86,3,3,0,0,1,.53-.14,4.32,4.32,0,0,0,.39.34l-.07.29a2.64,2.64,0,0,1-.29.73,3.71,3.71,0,0,1-.42.54,1.89,1.89,0,0,0-.25.31.3.3,0,1,0,.5.29,1.57,1.57,0,0,0,.1-.28c0-.09.07-.18.1-.27a3.46,3.46,0,0,1,.63-1.09l.22-.2a3.27,3.27,0,0,0,1.07.34l.05.24a2.07,2.07,0,0,1,0,.69,3.86,3.86,0,0,1-.12.59,1.43,1.43,0,0,0-.09.34.28.28,0,0,0,.22.34c.14,0,.27-.12.29-.3a2.6,2.6,0,0,0,0-.26,2.29,2.29,0,0,0,0-.25,2.87,2.87,0,0,1,.1-1.1,1.56,1.56,0,0,1,.11-.26,3.31,3.31,0,0,0,1-.16l0,.07a2.55,2.55,0,0,1,.44.82,4.5,4.5,0,0,1,.18.79,2.44,2.44,0,0,0,.09.47.4.4,0,0,0,.47.3.42.42,0,0,0,.18-.54,1.83,1.83,0,0,0-.18-.3,2.75,2.75,0,0,0-.17-.29,3.88,3.88,0,0,1-.51-1.41.62.62,0,0,1,0-.13,4.07,4.07,0,0,0,.61-.41l.43.24a2.65,2.65,0,0,1,.74.56,4.41,4.41,0,0,1,.5.64,2.7,2.7,0,0,0,.27.39.36.36,0,1,0,.49-.49,1.49,1.49,0,0,0-.29-.2l-.27-.2a3.86,3.86,0,0,1-1.07-1.06,3.29,3.29,0,0,1-.23-.5,3.34,3.34,0,0,0,.33-.55l.49,0a3.09,3.09,0,0,1,.91.19,5.41,5.41,0,0,1,.72.37,1.76,1.76,0,0,0,.42.24.41.41,0,0,0,.53-.17A.42.42,0,0,0,407.84,351.46Z" style="fill:#92E3A9"></path><path d="M368.34,359.5a2.05,2.05,0,0,0-.34-.07l-.34-.05a4,4,0,0,1-1.41-.52,2.94,2.94,0,0,1-.42-.35,3.49,3.49,0,0,0,.06-.65v-.09l.28-.11a2.09,2.09,0,0,1,.67-.16,3.89,3.89,0,0,1,.59,0,2.07,2.07,0,0,0,.35,0,.26.26,0,1,0,0-.51,2.5,2.5,0,0,0-.26.07l-.23.06a3,3,0,0,1-1.1.1,1.65,1.65,0,0,1-.32-.08,3.31,3.31,0,0,0-.25-.77l.34-.36a2.81,2.81,0,0,1,.73-.58,4.93,4.93,0,0,1,.75-.31,2.35,2.35,0,0,0,.44-.17.35.35,0,1,0-.34-.59,2.88,2.88,0,0,0-.27.22l-.26.22a4,4,0,0,1-1.3.75,3,3,0,0,1-.54.1,3.24,3.24,0,0,0-.66-.62l.09-.29a2.09,2.09,0,0,1,.31-.6,4.18,4.18,0,0,1,.4-.44,1.14,1.14,0,0,0,.24-.25.26.26,0,1,0-.41-.28,1.63,1.63,0,0,0-.11.23,2.14,2.14,0,0,0-.1.22,2.91,2.91,0,0,1-.63.9,2.86,2.86,0,0,1-.29.21,3.42,3.42,0,0,0-1.27-.34l-.13-.41a3.08,3.08,0,0,1-.12-.84,4.42,4.42,0,0,1,.1-.73,2.14,2.14,0,0,0,.07-.43.32.32,0,1,0-.63,0,1.65,1.65,0,0,0,.06.32c0,.1,0,.2.05.3a3.51,3.51,0,0,1,0,1.37,3.31,3.31,0,0,1-.16.46,3.35,3.35,0,0,0-.85.25l-.13-.15a2.65,2.65,0,0,1-.51-.78,4.32,4.32,0,0,1-.25-.77,1.86,1.86,0,0,0-.13-.46.4.4,0,0,0-.49-.26.41.41,0,0,0-.13.55,1.87,1.87,0,0,0,.2.29l.2.27a4,4,0,0,1,.63,1.36c0,.1,0,.19,0,.27a3.78,3.78,0,0,0-.56.49l-.25-.11a1.93,1.93,0,0,1-.54-.33,3.62,3.62,0,0,1-.38-.41,1.27,1.27,0,0,0-.21-.25.27.27,0,0,0-.38,0c-.09.1-.05.26.08.37a2.12,2.12,0,0,0,.2.12l.21.12a2.64,2.64,0,0,1,.78.66c.07.1.12.19.16.26a3.38,3.38,0,0,0-.38.76h-.16a2.86,2.86,0,0,1-.93-.11,4.93,4.93,0,0,1-.75-.31,2.11,2.11,0,0,0-.43-.2.36.36,0,1,0-.18.67,2.07,2.07,0,0,0,.35,0l.34,0a3.9,3.9,0,0,1,1.45.39l.16.1a4.73,4.73,0,0,0,0,.53,2.81,2.81,0,0,0,0,.29l-.28.14a2.12,2.12,0,0,1-.65.21,2.88,2.88,0,0,1-.59,0,1.29,1.29,0,0,0-.34,0,.26.26,0,1,0,.08.5,1.84,1.84,0,0,0,.25-.09l.23-.09a3.15,3.15,0,0,1,1.08-.19,2,2,0,0,1,.32.06,3.44,3.44,0,0,0,.34.84l-.3.39a2.88,2.88,0,0,1-.69.64,4.79,4.79,0,0,1-.71.37,2.14,2.14,0,0,0-.43.21.4.4,0,0,0-.17.53.4.4,0,0,0,.56,0,2,2,0,0,0,.25-.25l.24-.24a3.92,3.92,0,0,1,1.23-.86,3,3,0,0,1,.53-.14,3.17,3.17,0,0,0,.39.34l-.07.29a2.27,2.27,0,0,1-.29.73,4.5,4.5,0,0,1-.41.54,1.86,1.86,0,0,0-.26.31.33.33,0,0,0,.07.46.33.33,0,0,0,.43-.17,1.57,1.57,0,0,0,.1-.28c0-.09.07-.18.1-.27a3.46,3.46,0,0,1,.63-1.09,1.74,1.74,0,0,1,.22-.19,3.51,3.51,0,0,0,1.07.33l.05.24a2.43,2.43,0,0,1,0,.69,5.61,5.61,0,0,1-.13.59,1.43,1.43,0,0,0-.09.34.3.3,0,0,0,.22.35c.14,0,.27-.13.29-.31s0-.17,0-.26l0-.24a3.14,3.14,0,0,1,.1-1.11,1.17,1.17,0,0,1,.11-.25,3.67,3.67,0,0,0,1-.17l.05.07a3,3,0,0,1,.44.82,7.49,7.49,0,0,1,.18.79,1.78,1.78,0,0,0,.08.47.4.4,0,0,0,.47.3.41.41,0,0,0,.18-.53,1.92,1.92,0,0,0-.18-.31,2.75,2.75,0,0,0-.17-.29,4,4,0,0,1-.51-1.41.62.62,0,0,1,0-.13,3.56,3.56,0,0,0,.61-.4l.43.23a2.7,2.7,0,0,1,.74.56,3.81,3.81,0,0,1,.5.64,2.14,2.14,0,0,0,.28.39.4.4,0,0,0,.55.07.41.41,0,0,0-.07-.56,2.83,2.83,0,0,0-.28-.2l-.28-.19a4,4,0,0,1-1.06-1.06,3,3,0,0,1-.24-.51,2.77,2.77,0,0,0,.33-.55l.49,0a2.79,2.79,0,0,1,.91.2,4.17,4.17,0,0,1,.73.37,1.81,1.81,0,0,0,.41.23.39.39,0,0,0,.53-.17A.4.4,0,0,0,368.34,359.5Z" style="fill:#92E3A9"></path><path d="M389.79,377.23a4.64,4.64,0,0,0-.65-.11l-.62-.11a7.35,7.35,0,0,1-2.61-.95,5.18,5.18,0,0,1-.79-.66,6,6,0,0,0,.12-1.2c0-.06,0-.12,0-.17l.52-.21a3.79,3.79,0,0,1,1.24-.29,8.3,8.3,0,0,1,1.11,0,2.32,2.32,0,0,0,.64.06.49.49,0,1,0-.08-.94c-.16,0-.31.09-.47.12l-.44.13a5.5,5.5,0,0,1-2,.18,3.84,3.84,0,0,1-.59-.15,6.39,6.39,0,0,0-.47-1.44l.63-.66a5.32,5.32,0,0,1,1.36-1.07,8.92,8.92,0,0,1,1.39-.59,3.91,3.91,0,0,0,.83-.3.66.66,0,1,0-.64-1.11,3.37,3.37,0,0,0-.5.42c-.17.13-.32.27-.48.41a7.45,7.45,0,0,1-2.41,1.39,6.22,6.22,0,0,1-1,.18,6.39,6.39,0,0,0-1.23-1.15c0-.13.1-.29.18-.53a3.72,3.72,0,0,1,.57-1.13,5.69,5.69,0,0,1,.74-.81,3.26,3.26,0,0,0,.45-.46.48.48,0,1,0-.76-.53,2.44,2.44,0,0,0-.21.43c-.07.14-.13.28-.19.42a5.5,5.5,0,0,1-1.16,1.66,6,6,0,0,1-.55.39,6.25,6.25,0,0,0-2.36-.62l-.23-.76a4.69,4.69,0,0,1-.22-1.57,7.9,7.9,0,0,1,.17-1.36,3.54,3.54,0,0,0,.14-.79.6.6,0,1,0-1.17,0,4,4,0,0,0,.1.59c0,.19.07.37.11.56a7,7,0,0,1,0,2.54,5.68,5.68,0,0,1-.31.86,5.89,5.89,0,0,0-1.58.46l-.25-.28a5,5,0,0,1-.94-1.45,9,9,0,0,1-.47-1.44,3.67,3.67,0,0,0-.22-.85.66.66,0,1,0-1.17.54,5.22,5.22,0,0,0,.38.54c.11.18.24.35.36.51a7.38,7.38,0,0,1,1.18,2.53c0,.18.05.35.07.5a6.39,6.39,0,0,0-1,.91l-.47-.2a3.66,3.66,0,0,1-1-.63,6.31,6.31,0,0,1-.7-.76,2.5,2.5,0,0,0-.39-.46.51.51,0,0,0-.71,0,.51.51,0,0,0,.15.7,3,3,0,0,0,.38.23l.38.21a5,5,0,0,1,1.46,1.23,4.08,4.08,0,0,1,.29.48,6.62,6.62,0,0,0-.7,1.41h-.3a5.22,5.22,0,0,1-1.73-.21,8.83,8.83,0,0,1-1.39-.57,4.13,4.13,0,0,0-.8-.37.66.66,0,1,0-.33,1.24,3.49,3.49,0,0,0,.65.06l.62.05a7.35,7.35,0,0,1,2.7.72l.3.19a6.5,6.5,0,0,0-.08,1,4.58,4.58,0,0,0,0,.53l-.52.26a4.16,4.16,0,0,1-1.21.4,6.7,6.7,0,0,1-1.1.05,3.42,3.42,0,0,0-.64,0,.48.48,0,1,0,.16.92,2.41,2.41,0,0,0,.45-.16l.43-.16a5.45,5.45,0,0,1,2-.35,3.68,3.68,0,0,1,.61.1,6.32,6.32,0,0,0,.64,1.57l-.57.71a5.31,5.31,0,0,1-1.27,1.19,8.44,8.44,0,0,1-1.33.7,3.68,3.68,0,0,0-.8.38.75.75,0,0,0-.31,1,.76.76,0,0,0,1,.06,5.1,5.1,0,0,0,.47-.46l.44-.45a7.32,7.32,0,0,1,2.28-1.6,5.85,5.85,0,0,1,1-.27,7.31,7.31,0,0,0,.72.64l-.13.54a4.43,4.43,0,0,1-.54,1.36,8.31,8.31,0,0,1-.77,1,3.56,3.56,0,0,0-.47.57.55.55,0,1,0,.93.54,4.6,4.6,0,0,0,.19-.52l.18-.49a6.17,6.17,0,0,1,1.17-2,4,4,0,0,1,.4-.36,6.5,6.5,0,0,0,2,.62c0,.12.06.26.09.45a3.59,3.59,0,0,1,.07,1.28,6.82,6.82,0,0,1-.23,1.09,2.8,2.8,0,0,0-.17.63.55.55,0,0,0,.42.64c.26,0,.5-.22.52-.56a2.58,2.58,0,0,0,0-.48c0-.16,0-.31-.05-.46a5.42,5.42,0,0,1,.18-2.06c.07-.18.14-.34.2-.47a6.22,6.22,0,0,0,1.84-.3l.09.12a5.25,5.25,0,0,1,.82,1.53,8.42,8.42,0,0,1,.33,1.47,4.3,4.3,0,0,0,.16.87.66.66,0,1,0,1.2-.44,4.59,4.59,0,0,0-.32-.57c-.1-.18-.21-.36-.32-.54a7.28,7.28,0,0,1-.95-2.62,1.94,1.94,0,0,1,0-.24,6.52,6.52,0,0,0,1.13-.75l.8.44a5.14,5.14,0,0,1,1.39,1,9,9,0,0,1,.92,1.19,4.07,4.07,0,0,0,.51.72.66.66,0,1,0,.9-.9,2.85,2.85,0,0,0-.53-.38c-.17-.13-.34-.24-.52-.36a7.38,7.38,0,0,1-2-2,5.72,5.72,0,0,1-.43-.93,6.5,6.5,0,0,0,.6-1l.92.05a5.44,5.44,0,0,1,1.69.36,8.58,8.58,0,0,1,1.35.69,4.07,4.07,0,0,0,.76.44.66.66,0,1,0,.44-1.21Z" style="fill:#92E3A9"></path></g><g id="Virus--inject-1--inject-23"><path d="M377.39,161.24A70.55,70.55,0,0,0,321.61,275L308.8,298.09l24.14-11.47a70.57,70.57,0,1,0,44.45-125.38Z" style="fill:#fff;stroke:#263238;stroke-linecap:round;stroke-linejoin:round"></path><path d="M377.28,190.36a39.18,39.18,0,0,1,.81-6.48,16.75,16.75,0,0,0,.66-3.77c0-2-1.24-3.53-2.77-3.53s-2.78,1.58-2.78,3.53a17.82,17.82,0,0,0,.48,2.8c.14.9.32,1.79.5,2.68a32.22,32.22,0,0,1,0,12.07,22.13,22.13,0,0,1-2.09,5.27h7.77l-1.52-5.14A22.58,22.58,0,0,1,377.28,190.36Z" style="fill:#92E3A9;stroke:#263238;stroke-linecap:round;stroke-linejoin:round"></path><path d="M359.53,195.72a42.14,42.14,0,0,1-2.2-6.83,18.17,18.17,0,0,0-1.09-4.06c-.91-1.94-2.88-2.94-4.4-2.23s-2,2.86-1.12,4.81a20.23,20.23,0,0,0,1.77,2.57c.56.82,1.15,1.63,1.74,2.43,2.3,3.13,4.95,8.45,5.6,12a24.1,24.1,0,0,1,.37,6.21l7.73-3.6-3.9-4.4A25,25,0,0,1,359.53,195.72Z" style="fill:#92E3A9;stroke:#263238;stroke-linecap:round;stroke-linejoin:round"></path><path d="M348.23,207.17a29.19,29.19,0,0,1-3.34-3.6,13.07,13.07,0,0,0-1.85-2.2,2.15,2.15,0,1,0-2.69,3.2,14.19,14.19,0,0,0,1.85,1.08c.58.35,1.18.68,1.78,1a24,24,0,0,1,6.95,5.83,16.56,16.56,0,0,1,2,3.75l3.75-4.48-3.69-1.6A16.85,16.85,0,0,1,348.23,207.17Z" style="fill:#92E3A9;stroke:#263238;stroke-linecap:round;stroke-linejoin:round"></path><path d="M339.34,220.56a42,42,0,0,1-6.64-2.7,17.8,17.8,0,0,0-3.81-1.77c-2.07-.56-4.1.31-4.54,1.93s.89,3.4,3,3.95a20.22,20.22,0,0,0,3.11.3c1,.1,2,.16,3,.23,3.88.25,9.65,1.64,12.8,3.43a24.2,24.2,0,0,1,5,3.7l2.21-8.24-5.88.16A25.05,25.05,0,0,1,339.34,220.56Z" style="fill:#92E3A9;stroke:#263238;stroke-linecap:round;stroke-linejoin:round"></path><path d="M339.19,237.19a30.46,30.46,0,0,1-5.23.26,13.61,13.61,0,0,0-3.06,0c-1.55.28-2.62,1.48-2.41,2.69s1.64,2,3.18,1.69a14.1,14.1,0,0,0,2.15-.76c.68-.23,1.36-.5,2-.76a25.38,25.38,0,0,1,9.53-1.68,17.78,17.78,0,0,1,4.45.9l-1.08-6.13-3.84,1.92A18.21,18.21,0,0,1,339.19,237.19Z" style="fill:#92E3A9;stroke:#263238;stroke-linecap:round;stroke-linejoin:round"></path><path d="M342.56,255.61a43.22,43.22,0,0,1-6.35,3.35,18.53,18.53,0,0,0-3.8,1.77c-1.76,1.24-2.4,3.35-1.44,4.73s3.18,1.5,4.93.27a21,21,0,0,0,2.23-2.19c.71-.7,1.4-1.42,2.09-2.14,2.68-2.81,7.46-6.34,10.86-7.6a24.21,24.21,0,0,1,6.05-1.45l-4.89-7L348.58,250A25.2,25.2,0,0,1,342.56,255.61Z" style="fill:#92E3A9;stroke:#263238;stroke-linecap:round;stroke-linejoin:round"></path><path d="M356,264.58a35.43,35.43,0,0,1-3.64,4.8,15.34,15.34,0,0,0-2.26,2.71c-.91,1.56-.64,3.4.58,4.1s2.95,0,3.85-1.54a16.49,16.49,0,0,0,.91-2.46c.3-.78.57-1.58.84-2.37a29.66,29.66,0,0,1,5.56-9.64,20.51,20.51,0,0,1,4.1-3.25l-6.21-3.58-1.15,4.8A20.85,20.85,0,0,1,356,264.58Z" style="fill:#92E3A9;stroke:#263238;stroke-linecap:round;stroke-linejoin:round"></path><path d="M374,269.64a31.79,31.79,0,0,1-1.12,5.19,13.17,13.17,0,0,0-.8,3c-.14,1.58.75,2.95,2,3.06s2.36-1.08,2.5-2.66a13.85,13.85,0,0,0-.19-2.31c-.05-.73-.13-1.47-.21-2.2a26,26,0,0,1,.85-9.77,17.94,17.94,0,0,1,2.06-4.12l-6.29-.55.88,4.27A18.65,18.65,0,0,1,374,269.64Z" style="fill:#92E3A9;stroke:#263238;stroke-linecap:round;stroke-linejoin:round"></path><path d="M391.08,268.13a42.75,42.75,0,0,1,1.59,7,18.65,18.65,0,0,0,.74,4.13c.73,2,2.61,3.18,4.19,2.61s2.27-2.68,1.53-4.69a19.77,19.77,0,0,0-1.54-2.72c-.48-.87-1-1.72-1.52-2.57-2-3.32-4.19-8.85-4.53-12.46a24.06,24.06,0,0,1,.17-6.22l-8,2.92,3.5,4.72A25.07,25.07,0,0,1,391.08,268.13Z" style="fill:#92E3A9;stroke:#263238;stroke-linecap:round;stroke-linejoin:round"></path><path d="M407.25,261.74a43.2,43.2,0,0,1,4.4,5.67,18.8,18.8,0,0,0,2.41,3.44c1.52,1.51,3.71,1.78,4.9.59s.93-3.39-.59-4.9a20.54,20.54,0,0,0-2.54-1.81c-.81-.59-1.64-1.14-2.47-1.69-3.23-2.16-7.54-6.25-9.37-9.37a24.42,24.42,0,0,1-2.48-5.71l-6,6,5.17,2.8A25,25,0,0,1,407.25,261.74Z" style="fill:#92E3A9;stroke:#263238;stroke-linecap:round;stroke-linejoin:round"></path><path d="M417.23,246.33a43.19,43.19,0,0,1,6.38,3.28,18.56,18.56,0,0,0,3.64,2.09c2,.74,4.11.05,4.69-1.53s-.59-3.46-2.61-4.19a19.77,19.77,0,0,0-3.07-.57c-1-.19-2-.34-2.95-.49-3.84-.59-9.47-2.48-12.45-4.53a24.26,24.26,0,0,1-4.66-4.13l-2.92,8,5.87.35A25,25,0,0,1,417.23,246.33Z" style="fill:#92E3A9;stroke:#263238;stroke-linecap:round;stroke-linejoin:round"></path><path d="M416,228.37a30,30,0,0,1,5.27.2,13.28,13.28,0,0,0,3.07.26c1.57-.13,2.76-1.24,2.65-2.48s-1.47-2.12-3-2a14.51,14.51,0,0,0-2.22.58c-.71.18-1.41.38-2.11.59a26.06,26.06,0,0,1-9.71.85,17.8,17.8,0,0,1-4.38-1.31l.55,6.25,4-1.59A18.41,18.41,0,0,1,416,228.37Z" style="fill:#92E3A9;stroke:#263238;stroke-linecap:round;stroke-linejoin:round"></path><path d="M414.36,210.59a44,44,0,0,1,6.61-2.78,18.3,18.3,0,0,0,3.95-1.44c1.86-1.07,2.68-3.12,1.84-4.58s-3-1.77-4.89-.69a19.72,19.72,0,0,0-2.4,2c-.78.63-1.53,1.29-2.28,1.95-2.91,2.56-8,5.66-11.47,6.62a24.34,24.34,0,0,1-6.16.92l4.27,7.39,4-4.27A25.24,25.24,0,0,1,414.36,210.59Z" style="fill:#92E3A9;stroke:#263238;stroke-linecap:round;stroke-linejoin:round"></path><path d="M398.64,199.15a31.44,31.44,0,0,1,3.51-3.87,13,13,0,0,0,2.16-2.17c.9-1.28.81-2.89-.19-3.59a2.58,2.58,0,0,0-3.44,1,13.78,13.78,0,0,0-1,2.05c-.32.65-.61,1.32-.9,2a25.76,25.76,0,0,1-5.54,7.91,17.6,17.6,0,0,1-3.78,2.5l5.09,3.57,1.35-4.07A18.58,18.58,0,0,1,398.64,199.15Z" style="fill:#92E3A9;stroke:#263238;stroke-linecap:round;stroke-linejoin:round"></path><circle cx="377.48" cy="231.53" r="30.21" style="fill:#92E3A9;stroke:#263238;stroke-linecap:round;stroke-linejoin:round"></circle><ellipse cx="362.06" cy="216.24" rx="2.64" ry="4.42" transform="translate(-20.28 394.18) rotate(-55.8)" style="fill:#92E3A9;stroke:#263238;stroke-linecap:round;stroke-linejoin:round"></ellipse><path d="M362.08,219.25a6.93,6.93,0,0,1,3.2,2.05,8.22,8.22,0,0,1,1.15,4.08" style="fill:#92E3A9;stroke:#263238;stroke-linecap:round;stroke-linejoin:round"></path><path d="M365.66,216.57c.28.38,1.11,1.67,1.41,2.17,1.27,2.17,4.34,2.56,4.34,2.56" style="fill:#92E3A9;stroke:#263238;stroke-linecap:round;stroke-linejoin:round"></path><path d="M388.77,216.86c-.93-.32-1.25-1.85-.72-3.41s1.73-2.56,2.66-2.24,1.25,1.85.72,3.4S389.7,217.18,388.77,216.86Z" style="fill:#92E3A9;stroke:#263238;stroke-linecap:round;stroke-linejoin:round"></path><path d="M387.78,214.58A4.73,4.73,0,0,1,387,217a5.64,5.64,0,0,1-2.46,1.47" style="fill:#92E3A9;stroke:#263238;stroke-linecap:round;stroke-linejoin:round"></path><path d="M390.16,216.44c-.2.25-.89,1-1.16,1.3a4.35,4.35,0,0,0-.9,3.28" style="fill:#92E3A9;stroke:#263238;stroke-linecap:round;stroke-linejoin:round"></path><path d="M391.76,240.13c.47-.87,2-.93,3.47-.15s2.24,2.13,1.77,3-2,.93-3.47.15S391.29,241,391.76,240.13Z" style="fill:#92E3A9;stroke:#263238;stroke-linecap:round;stroke-linejoin:round"></path><path d="M394.16,239.53a4.74,4.74,0,0,1-2.28-1.16,5.63,5.63,0,0,1-1.05-2.67" style="fill:#92E3A9;stroke:#263238;stroke-linecap:round;stroke-linejoin:round"></path><path d="M391.94,241.57c-.22-.24-.86-1-1.09-1.37a4.35,4.35,0,0,0-3.09-1.42" style="fill:#92E3A9;stroke:#263238;stroke-linecap:round;stroke-linejoin:round"></path><path d="M358.77,241.16c.57.81-.06,2.23-1.4,3.18s-2.9,1.08-3.47.27.06-2.22,1.41-3.18S358.2,240.36,358.77,241.16Z" style="fill:#92E3A9;stroke:#263238;stroke-linecap:round;stroke-linejoin:round"></path><path d="M358.25,243.58a4.62,4.62,0,0,1,2-1.53,5.5,5.5,0,0,1,2.86.24" style="fill:#92E3A9;stroke:#263238;stroke-linecap:round;stroke-linejoin:round"></path><path d="M357.4,240.69c.3-.09,1.31-.31,1.7-.37a4.35,4.35,0,0,0,2.64-2.15" style="fill:#92E3A9;stroke:#263238;stroke-linecap:round;stroke-linejoin:round"></path><path d="M378.05,243.65c1.41-.39,3.07,1.21,3.72,3.57s0,4.58-1.38,5-3.07-1.21-3.72-3.57S376.65,244,378.05,243.65Z" style="fill:#92E3A9;stroke:#263238;stroke-linecap:round;stroke-linejoin:round"></path><path d="M381.16,245.61a6.92,6.92,0,0,1-1.1-3.63,8.29,8.29,0,0,1,1.78-3.86" style="fill:#92E3A9;stroke:#263238;stroke-linecap:round;stroke-linejoin:round"></path><path d="M376.7,245.32c0-.47.24-2,.34-2.56.44-2.48-1.64-4.77-1.64-4.77" style="fill:#92E3A9;stroke:#263238;stroke-linecap:round;stroke-linejoin:round"></path></g><g id="character--inject-1--inject-23"><path d="M178.28,234.28s-25.56,6-31.38,7.55-10.45,25-11,34.67-5.62,75.73-8,89.87-6.19,38.93-6.19,38.93H266.4l-3.48-60s2.71,6.78,3.68,8.52,11.42,4.84,17.82,4.45S297.2,355.91,297.2,347s-8.72-22.66-14.14-35.83-11.81-41.06-19.76-53.26S249,241.64,242.58,239.12s-8.52-2.32-11.81-3.29-29.44-4.26-35.06-4.26S178.28,234.28,178.28,234.28Z" style="fill:#92E3A9"></path><g style="clip-path:url(#clip-path--inject-1--inject-23)"><path d="M284.42,358.23c6.39-.38,12.78-2.32,12.78-11.23s-8.72-22.66-14.14-35.83-11.81-41.06-19.76-53.26S249,241.64,242.58,239.12s-8.52-2.32-11.81-3.29c-1.87-.55-11.07-1.84-19.71-2.86l-38.4,48.18,19.73,1.35s-12.5,11.5-12,13,17,20,17,20-24.5-14.5-33.5-26.5-8-6-7,2-17,36-17,36-2.5,18-2.5,21.5.5,13.5.5,13.5l37.5,43.3h91l-3.48-60s2.71,6.78,3.68,8.52S278,358.62,284.42,358.23Z" style="fill:#263238;opacity:0.4"></path></g><path d="M178.28,234.28s-25.56,6-31.38,7.55-10.45,25-11,34.67-5.62,75.73-8,89.87-6.19,38.93-6.19,38.93H266.4l-3.48-60s2.71,6.78,3.68,8.52,11.42,4.84,17.82,4.45S297.2,355.91,297.2,347s-8.72-22.66-14.14-35.83-11.81-41.06-19.76-53.26S249,241.64,242.58,239.12s-8.52-2.32-11.81-3.29-29.44-4.26-35.06-4.26S178.28,234.28,178.28,234.28Z" style="fill:none;stroke:#263238;stroke-linecap:round;stroke-linejoin:round"></path><path d="M204,216.46s-5.62-1.55-8.91-.58-6.39,5-13.36,11.62-9.49,7.55-9.49,10.65,1.55,29.44,1,34.67-.58,8.33-.58,8.33l20.92-3.87-12.39,13s7.55,6.78,15.88,10.27S222.25,315,222.25,315l-2.14,15.3s10.08-17.81,11.63-21.88,18.39-31.38,18.39-31.38l-7-12.2L255,261.59S245.68,249,240.45,238s-9.88-14.91-18.4-18.79S204,216.46,204,216.46Z" style="fill:#92E3A9"></path><g style="clip-path:url(#clip-path-2--inject-1--inject-23)"><path d="M243.16,264.88,255,261.59S245.68,249,240.45,238s-9.88-14.91-18.4-18.79-18-2.71-18-2.71-5.62-1.55-8.91-.58a7.42,7.42,0,0,0-1.84.86c-4.41,9.78-5.37,11.84-2.9,20.76s10,38.5,12,42.5-11.91,6.51-21.2,10.25c0,0,7.55,6.78,15.88,10.27S222.25,315,222.25,315l-2.14,15.3s10.08-17.81,11.63-21.88,18.39-31.38,18.39-31.38Z" style="fill:#263238;opacity:0.4"></path></g><path d="M204,216.46s-5.62-1.55-8.91-.58-6.39,5-13.36,11.62-9.49,7.55-9.49,10.65,1.55,29.44,1,34.67-.58,8.33-.58,8.33l20.92-3.87-12.39,13s7.55,6.78,15.88,10.27S222.25,315,222.25,315l-2.14,15.3s10.08-17.81,11.63-21.88,18.39-31.38,18.39-31.38l-7-12.2L255,261.59S245.68,249,240.45,238s-9.88-14.91-18.4-18.79S204,216.46,204,216.46Z" style="fill:none;stroke:#263238;stroke-linecap:round;stroke-linejoin:round"></path><path d="M201.72,265.27s5.81,14.91,7.16,20.53a43.88,43.88,0,0,0,3.88,10.07L224,305.55l5.42-13s4.07-17.05,3.49-29.44-4.07-26.15-12.2-34.48-20.53-4.64-22.08,3.68S201.72,265.27,201.72,265.27Z" style="fill:#fff;stroke:#263238;stroke-linecap:round;stroke-linejoin:round"></path><polygon points="206.75 257.91 216.63 269.92 212.75 295.87 223.99 305.55 228.64 293.55 220.89 268.95 228.06 255.39 217.79 245.71 206.75 257.91" style="fill:#263238;stroke:#263238;stroke-linecap:round;stroke-linejoin:round"></polygon><path d="M202.3,215.11s-2.91.58-4.26,2.13-6.4,3.68-6,10.84,9.3,35.45,9.69,37.19,15.88-10.85,15.88-10.85l15.3,10.85s1-13-2.13-25-10.85-22.66-16.47-25S202.3,215.11,202.3,215.11Z" style="fill:#fff;stroke:#263238;stroke-linecap:round;stroke-linejoin:round"></path><path d="M202.68,193.22s-.77,16.08-2.13,22.66-2.71,6.59-1.16,11.43,16.46,25.76,18.21,27.11,9.68-10.65,12.39-16.85-7.16-13.36-13.75-23.43-9.1-20.92-10.65-21.11A8,8,0,0,0,202.68,193.22Z" style="fill:#fff;stroke:#263238;stroke-linecap:round;stroke-linejoin:round"></path><path d="M265.59,164.72c-.29,1.23-.93,2.3-1.36,4a44.28,44.28,0,0,0-1.31,6.85c-.39,4.45-1,16.07-3.68,24s-7.17,19.18-11,26.15-9.69,12.78-17.63,11.81-10.26-2.13-16.85-10.07-8.91-12.2-9.87-15.88a48.44,48.44,0,0,1-1-9.68s-2.52-18.6.58-27.51,7.94-25.17,23.63-29.05,32,3.1,34.47,6.59a27.43,27.43,0,0,1,4,9.8A6.19,6.19,0,0,1,265.59,164.72Z" style="fill:#fff"></path><g style="clip-path:url(#clip-path-3--inject-1--inject-23)"><path d="M261.56,152c-2.52-3.49-18.79-10.46-34.47-6.59-8.32,2.05-13.58,7.59-17.16,13.66l3.8,7c.66-1.33,9-6,9-6s1,8,6.33,10,6.67,2,6.67,2,2-8.33,5-10,.33,4,7,10.67,11.66,6,11.66,6-3.33,29.66-10.33,42.66c-2.4,4.46-4.35,8.19-5.77,11.19a32.1,32.1,0,0,0,4.91-6.76c3.87-7,8.33-18.21,11-26.15s3.29-19.56,3.68-24a44.28,44.28,0,0,1,1.31-6.85c.43-1.73,1.07-2.8,1.36-4a6.19,6.19,0,0,0-.07-2.95A27.43,27.43,0,0,0,261.56,152Z" style="fill:#92E3A9"></path><path d="M261.56,152c-2.52-3.49-18.79-10.46-34.47-6.59-8.32,2.05-13.58,7.59-17.16,13.66l3.8,7c.66-1.33,9-6,9-6s1,8,6.33,10,6.67,2,6.67,2,2-8.33,5-10,.33,4,7,10.67,11.66,6,11.66,6-3.33,29.66-10.33,42.66c-2.4,4.46-4.35,8.19-5.77,11.19a32.1,32.1,0,0,0,4.91-6.76c3.87-7,8.33-18.21,11-26.15s3.29-19.56,3.68-24a44.28,44.28,0,0,1,1.31-6.85c.43-1.73,1.07-2.8,1.36-4a6.19,6.19,0,0,0-.07-2.95A27.43,27.43,0,0,0,261.56,152Z" style="fill:#fff;opacity:0.5"></path></g><path d="M265.59,164.72c-.29,1.23-.93,2.3-1.36,4a44.28,44.28,0,0,0-1.31,6.85c-.39,4.45-1,16.07-3.68,24s-7.17,19.18-11,26.15-9.69,12.78-17.63,11.81-10.26-2.13-16.85-10.07-8.91-12.2-9.87-15.88a48.44,48.44,0,0,1-1-9.68s-2.52-18.6.58-27.51,7.94-25.17,23.63-29.05,32,3.1,34.47,6.59a27.43,27.43,0,0,1,4,9.8A6.19,6.19,0,0,1,265.59,164.72Z" style="fill:none;stroke:#263238;stroke-linecap:round;stroke-linejoin:round"></path><path d="M274.73,152.16s6.39,1,4.84-6.39-8.91-11.23-15.1-10.46-18.79,3.49-24.21,2.52-13-7.94-25-4.84-19.36,18.2-17.62,27.11,5,23.24,5,23.24,3.49,3.88,5.23,3.68,7.56-8.13,7.94-10.26-3.87-11-1.55-14.92,7.75-6,7.75-6-1.94,7.94,2.13,11.23,7.36,1.94,7.56,1c0,0,2.82-10.58,7.93-12.53s5.84,3.9,12.17,11.68,12.65,4.63,13.38,4.14-2.19-2-5.6-6.08a19.18,19.18,0,0,1-3.46-6.12c4.24,3.81,8.78,8.21,10.82,10.46,3.68,4.07,13.56-.58,14.14-4.07S274.73,152.16,274.73,152.16Z" style="fill:#263238;stroke:#263238;stroke-linecap:round;stroke-linejoin:round"></path><path d="M222.25,177.73s-19.18-5-20.92-5.43-3.88,4.07-3.88,4.07L215.66,193l7.75-14.14Z" style="fill:#fff;stroke:#263238;stroke-linecap:round;stroke-linejoin:round"></path><path d="M230.57,237.57c7.94,1,13.75-4.84,17.63-11.81,3.63-6.55,7.78-16.85,10.52-24.66-5.7.29-20.94.76-30.86-1.88-12.39-3.29-16.85-9.49-20-12.2a52.67,52.67,0,0,1-5.69-6.35c-.05.42-.08.84-.12,1.27,2,2.73,11.15,15.4,12,19,1,4.06-1.74,10.26-4.26,11.62s-4.84-5.62-5.62-7.36-1.35-3.29-1.35-3.29a57.88,57.88,0,0,0,.54,7.54c.11.71.25,1.42.43,2.14,1,3.68,3.29,7.94,9.87,15.88S222.63,236.6,230.57,237.57Z" style="fill:#92E3A9"></path><g style="clip-path:url(#clip-path-4--inject-1--inject-23)"><path d="M243.18,201.2c-.94,5.7-3.37,15-9.66,22a22.58,22.58,0,0,1-17.15,7.41c4.73,5.2,7.43,6.19,14.2,7,7.94,1,13.75-4.84,17.63-11.81,3.63-6.55,7.78-16.85,10.52-24.66C255.6,201.26,249.59,201.47,243.18,201.2Z" style="fill:#263238;opacity:0.4"></path></g><path d="M230.57,237.57c7.94,1,13.75-4.84,17.63-11.81,3.63-6.55,7.78-16.85,10.52-24.66-5.7.29-20.94.76-30.86-1.88-12.39-3.29-16.85-9.49-20-12.2a52.67,52.67,0,0,1-5.69-6.35c-.05.42-.08.84-.12,1.27,2,2.73,11.15,15.4,12,19,1,4.06-1.74,10.26-4.26,11.62s-4.84-5.62-5.62-7.36-1.35-3.29-1.35-3.29a57.88,57.88,0,0,0,.54,7.54c.11.71.25,1.42.43,2.14,1,3.68,3.29,7.94,9.87,15.88S222.63,236.6,230.57,237.57Z" style="fill:none;stroke:#263238;stroke-linecap:round;stroke-linejoin:round"></path><path d="M222.25,177.73a11.52,11.52,0,0,0-6.8,7.55c-1.89,6,.57,13.94,7.37,15.88s29.64,2.71,35.69,1.36,10.76-9.11,8.87-15.69-8.5-7-8.5-7l-30.65-2.68a16.43,16.43,0,0,0-5.92.53Z" style="fill:#fff;stroke:#263238;stroke-linecap:round;stroke-linejoin:round"></path><line x1="233.48" y1="194.19" x2="222.63" y2="193.03" style="fill:none;stroke:#263238;stroke-linecap:round;stroke-linejoin:round"></line><path d="M232.32,194.19s-1.55,2.32-3.88,1.94a2.15,2.15,0,0,1-1.93-2.52Z" style="fill:#263238"></path><line x1="258.08" y1="196.32" x2="247.23" y2="195.16" style="fill:none;stroke:#263238;stroke-linecap:round;stroke-linejoin:round"></line><path d="M256.91,196.32s-1.55,2.32-3.87,1.94a2.16,2.16,0,0,1-1.94-2.52Z" style="fill:#263238"></path><path d="M235.22,187.6s-4.07-6.77-12.78-3.48" style="fill:none;stroke:#263238;stroke-linecap:round;stroke-linejoin:round;stroke-width:3px"></path><path d="M247.23,191.67S251.3,186.83,259,188" style="fill:none;stroke:#263238;stroke-linecap:round;stroke-linejoin:round;stroke-width:3px"></path><path d="M284.64,338.09s-10.72,20.19-10.93,22.08,8.2.64,9.46-.21,9.05-13.67,9.68-17.88-1.26-5.89-3.79-5.89A7,7,0,0,0,284.64,338.09Z" style="fill:#fff;stroke:#263238;stroke-linecap:round;stroke-linejoin:round"></path><path d="M283.88,338.4s-1.69-1.47-5.26-.84-6.31,7.15-7.37,10.52-3.15,8.2-2.73,8.83,2.31,1.26,4.42.21S283,342.4,283.88,340.5,283.88,338.4,283.88,338.4Z" style="fill:#fff;stroke:#263238;stroke-linecap:round;stroke-linejoin:round"></path><path d="M300.63,344.61a5.93,5.93,0,0,1,4.21,5.89c-.21,4.63-2.11,8.83-5.47,10.94s-8.63,2.31-8.2-.42S299,350.29,300.63,344.61Z" style="fill:#fff;stroke:#263238;stroke-linecap:round;stroke-linejoin:round"></path><path d="M293.06,340.61s-8.84,16.83-9.89,19.35,2.95,2.74,4.63,2.32,9.26-6.94,11.36-13.46.42-6.74-1.89-7.79S294.53,340.19,293.06,340.61Z" style="fill:#fff;stroke:#263238;stroke-linecap:round;stroke-linejoin:round"></path><path d="M240.83,201.49l-1.7-1.65a2.76,2.76,0,0,0-.3-.29h0a4.54,4.54,0,0,0-7.55,3.4,4.58,4.58,0,0,0,.72,2.46h0l0,0a4.57,4.57,0,0,0,1.06,1.13l1.51,1.6.67-.72a3.43,3.43,0,0,0,.56,0,4.54,4.54,0,0,0,4.54-4.55,4.71,4.71,0,0,0-.08-.85Z" style="fill:#5e5e5e;stroke:#263238;stroke-linecap:round;stroke-linejoin:round"></path><circle cx="237.79" cy="204.92" r="4.55" style="fill:#263238;stroke:#263238;stroke-linecap:round;stroke-linejoin:round"></circle><path d="M246.27,205.46,244,203.24a4.89,4.89,0,0,0-.4-.39h0a6.09,6.09,0,0,0-9.16,7.85h0l0,.05a6.22,6.22,0,0,0,1.43,1.51l2,2.15.9-1a6.16,6.16,0,0,0,.75.05,6.1,6.1,0,0,0,6.09-6.1,6.23,6.23,0,0,0-.11-1.15Z" style="fill:#5e5e5e;stroke:#263238;stroke-linecap:round;stroke-linejoin:round"></path><circle cx="242.2" cy="210.05" r="6.1" style="fill:#263238;stroke:#263238;stroke-linecap:round;stroke-linejoin:round"></circle><path d="M258.55,201.49l-1.7-1.65-.3-.29h0a4.54,4.54,0,0,0-6.83,5.86h0l0,0a4.57,4.57,0,0,0,1.06,1.13l1.51,1.6.68-.72a3.31,3.31,0,0,0,.55,0,4.55,4.55,0,0,0,4.55-4.55,4,4,0,0,0-.09-.85Z" style="fill:#5e5e5e;stroke:#263238;stroke-linecap:round;stroke-linejoin:round"></path><circle cx="255.51" cy="204.92" r="4.55" style="fill:#263238;stroke:#263238;stroke-linecap:round;stroke-linejoin:round"></circle><path d="M264,205.46l-2.28-2.22a5,5,0,0,0-.41-.39h0a6,6,0,0,0-4-1.54,6.09,6.09,0,0,0-5.13,9.39h0l0,.05a6.18,6.18,0,0,0,1.42,1.51l2,2.15.91-1a6,6,0,0,0,.74.05,6.1,6.1,0,0,0,6.1-6.1,6.23,6.23,0,0,0-.11-1.15Z" style="fill:#5e5e5e;stroke:#263238;stroke-linecap:round;stroke-linejoin:round"></path><path d="M266,210.05a6.1,6.1,0,1,1-6.1-6.09A6.1,6.1,0,0,1,266,210.05Z" style="fill:#263238;stroke:#263238;stroke-linecap:round;stroke-linejoin:round"></path><path d="M271.17,212.19a6.49,6.49,0,0,0-1.2-1.51l-.15-.19h-.05a6.28,6.28,0,0,0-4.09-1.51H241a6.32,6.32,0,0,0-6.32,6.32h0a6.3,6.3,0,0,0,1.75,4.36l-.08,0,10.54,11.64,34.26-8.2Z" style="fill:#5e5e5e;stroke:#263238;stroke-linecap:round;stroke-linejoin:round"></path><path d="M277.19,234.46H252.47a6.31,6.31,0,0,1-6.31-6.32h0a6.31,6.31,0,0,1,6.31-6.32h24.72a6.32,6.32,0,0,1,6.32,6.32h0A6.32,6.32,0,0,1,277.19,234.46Z" style="fill:#263238;stroke:#263238;stroke-linecap:round;stroke-linejoin:round"></path><path d="M286.26,229.64H251.39l3.1,8.13-3.1,17.42h34.87a12.78,12.78,0,0,0,0-25.55Z" style="fill:#263238;stroke:#263238;stroke-linecap:round;stroke-linejoin:round"></path><path d="M251.39,229.64v25.55a12.78,12.78,0,0,0,0-25.55Z" style="fill:#5e5e5e;stroke:#263238;stroke-linecap:round;stroke-linejoin:round"></path><path d="M264.18,258.1s-12.79,1.75-22.47,9.1-11.62,14.53-12.4,18.6a53,53,0,0,0-.77,8.52v66.62h13.17V292.77s-1.16-8.91,3.87-16.27S264.18,266,264.18,266Z" style="fill:#263238;stroke:#263238;stroke-linecap:round;stroke-linejoin:round"></path><path d="M252.75,258.1s-12.78,1.75-22.47,9.1-11.62,14.53-12.39,18.6a52.38,52.38,0,0,0-.78,8.52v66.62h13.17V292.77s-1.16-8.91,3.88-16.27S252.75,266,252.75,266Z" style="fill:#fff;stroke:#263238;stroke-linecap:round;stroke-linejoin:round"></path><circle cx="222.26" cy="333.91" r="9.57" transform="translate(-144.42 496.52) rotate(-80.27)" style="fill:#263238;stroke:#263238;stroke-linecap:round;stroke-linejoin:round"></circle><rect x="262.38" y="290.06" width="3.87" height="2.52" style="fill:#263238;stroke:#263238;stroke-linecap:round;stroke-linejoin:round"></rect><rect x="259.77" y="267.2" width="9.1" height="23.24" style="fill:#263238;stroke:#263238;stroke-linecap:round;stroke-linejoin:round"></rect><rect x="287.62" y="287.49" width="3.87" height="2.52" transform="translate(-88.44 132.74) rotate(-22.49)" style="fill:#263238;stroke:#263238;stroke-linecap:round;stroke-linejoin:round"></rect><rect x="280.22" y="265.58" width="9.1" height="23.24" transform="translate(-84.39 130.04) rotate(-22.49)" style="fill:#263238;stroke:#263238;stroke-linecap:round;stroke-linejoin:round"></rect><rect x="251.39" y="255.19" width="36.8" height="15.31" style="fill:#5e5e5e;stroke:#263238;stroke-linecap:round;stroke-linejoin:round"></rect><rect x="259.4" y="255.19" width="28.79" height="15.31" style="fill:#263238;stroke:#263238;stroke-linecap:round;stroke-linejoin:round"></rect><polygon points="280.64 328.12 279.19 328.12 279.19 315.62 275.7 315.62 275.7 328.12 274.54 328.12 274.54 335.96 275.7 335.96 275.7 356.59 279.19 356.59 279.19 335.96 280.64 335.96 280.64 328.12" style="fill:#263238;stroke:#263238;stroke-linecap:round;stroke-linejoin:round"></polygon><path d="M307.17,395.23h-66V369.69a14,14,0,0,1,14-14h12.56a39.5,39.5,0,0,1,39.51,39.51Z" style="fill:#263238;stroke:#263238;stroke-linecap:round;stroke-linejoin:round"></path><path d="M289,395.23H222.92V369.69a14,14,0,0,1,14-14h12.56A39.5,39.5,0,0,1,289,395.23Z" style="fill:#5e5e5e;stroke:#263238;stroke-linecap:round;stroke-linejoin:round"></path><rect x="245.2" y="314.27" width="27.11" height="43.38" style="fill:#263238;stroke:#263238;stroke-linecap:round;stroke-linejoin:round"></rect><rect x="245.2" y="328.43" width="27.11" height="15.06" style="fill:#5e5e5e;stroke:#263238;stroke-linecap:round;stroke-linejoin:round"></rect><path d="M281.41,395.23h-66V369.69a14,14,0,0,1,14-14H241.9a39.5,39.5,0,0,1,39.51,39.51Z" style="fill:#263238;stroke:#263238;stroke-linecap:round;stroke-linejoin:round"></path><path d="M203.65,404.91h0a1,1,0,0,1-1-.92l-.82-7.6h3.68l-.82,7.6A1,1,0,0,1,203.65,404.91Z" style="fill:#263238;stroke:#263238;stroke-linecap:round;stroke-linejoin:round"></path><path d="M246.45,404.91h0a1,1,0,0,1-1-.92l-.83-7.6h3.68l-.82,7.6A1,1,0,0,1,246.45,404.91Z" style="fill:#263238;stroke:#263238;stroke-linecap:round;stroke-linejoin:round"></path><path d="M262.38,404.91h0a1,1,0,0,1-1-.92l-.82-7.6h3.68l-.82,7.6A1,1,0,0,1,262.38,404.91Z" style="fill:#263238;stroke:#263238;stroke-linecap:round;stroke-linejoin:round"></path><path d="M305.77,404.91h0a1,1,0,0,1-1-.92l-.82-7.6h3.68l-.82,7.6A1,1,0,0,1,305.77,404.91Z" style="fill:#263238;stroke:#263238;stroke-linecap:round;stroke-linejoin:round"></path><path d="M263.21,395.23h-66V369.69a14,14,0,0,1,14-14H223.7a39.5,39.5,0,0,1,39.51,39.51Z" style="fill:#5e5e5e;stroke:#263238;stroke-linecap:round;stroke-linejoin:round"></path><rect x="193.48" y="393.48" width="118.34" height="4.07" rx="2.03" style="fill:#fff;stroke:#263238;stroke-linecap:round;stroke-linejoin:round"></rect><rect x="227.96" y="310.01" width="85.02" height="7.17" style="fill:#fff;stroke:#263238;stroke-linecap:round;stroke-linejoin:round"></rect><rect x="257.18" y="310.01" width="55.81" height="7.17" style="fill:#263238;stroke:#263238;stroke-linecap:round;stroke-linejoin:round"></rect><path d="M170,341.77s22.66-13.17,29.25-17.43,8.33-3.49,9.88-2.52,9.29,8.33,11.81,9.49a3.54,3.54,0,0,1,1.94,4.46c-.39.58-6,6-6,6s1.36,3.1-.19,4.07-5.81,4.65-5.81,4.65-5.42,5.42-7.36,6.58-5.81,5.23-7.55,5.42-4.07-1.55-5.43-2.32l-1.35-.77a11.66,11.66,0,0,1-8.53,3.48c-5.22-.19-17.43-3.87-17.43-3.87S164.72,346.42,170,341.77Z" style="fill:#fff;stroke:#263238;stroke-linecap:round;stroke-linejoin:round"></path><path d="M203.46,357.07a5.13,5.13,0,0,0-.78-2.32c-.77-1.36-6.39-7.75-7.74-10.46" style="fill:none;stroke:#263238;stroke-linecap:round;stroke-linejoin:round"></path><path d="M199.59,337.32s4.45,6.77,6.77,8.71,5.23,3.29,4.46,4.46" style="fill:none;stroke:#263238;stroke-linecap:round;stroke-linejoin:round"></path><path d="M216.82,341.77a93.38,93.38,0,0,1-8.13-6.58c-2.52-2.52-3.49-3.3-3.49-3.3" style="fill:none;stroke:#263238;stroke-linecap:round;stroke-linejoin:round"></path><path d="M208.69,335.19s7.16,0,8.52.19" style="fill:none;stroke:#263238;stroke-linecap:round;stroke-linejoin:round"></path><path d="M189.13,359.4s-1.36-.78,0-1.94,4.45,0,4.45,0" style="fill:none;stroke:#263238;stroke-linecap:round;stroke-linejoin:round"></path><path d="M153.88,242.22s-15.3-.19-19.56,1.16-3.49,3.49-4.85,10.46-17.81,48-23.62,64.3-13.95,41.45-12.59,44,29.24,7.55,43.77,8.32a303.09,303.09,0,0,1,32.34,4.07s-3.68-23.05,3.68-34.09c0,0-22.85-1.16-27.89-2.32s-6.39-1.55-6.39-1.55,11.81-21.3,15.49-27.5,5.43-32.93-6.19-43.77" style="fill:#92E3A9;stroke:#263238;stroke-linecap:round;stroke-linejoin:round"></path><path d="M125.6,328.21s7.55-.58,11,3.3,2.13,5,2.13,5-2.13-2.71-7.36-4.26-12,0-15.11,2.52" style="fill:none;stroke:#263238;stroke-linecap:round;stroke-linejoin:round"></path><path d="M204.62,189.35s-1.16-9.3-4.65-12.79-7.36-1.35-7.36,8.53,7,19,10.46,17.62,3.29-2.71,3.29-2.71" style="fill:#fff;stroke:#263238;stroke-linecap:round;stroke-linejoin:round"></path><path d="M195.06,188.33s-.33-9.33,2.67-9,4.33,11.34,4.33,11.34-4.33-4.67-4.33-2,3.33,4.33,3.33,4.33" style="fill:none;stroke:#263238;stroke-linecap:round;stroke-linejoin:round"></path></g><g id="Table--inject-1--inject-23"><line x1="52" y1="405.39" x2="429.8" y2="405.39" style="fill:none;stroke:#263238;stroke-linecap:round;stroke-linejoin:round"></line></g></svg>