<?xml version="1.0" standalone="no"?><svg xmlns="http://www.w3.org/2000/svg" viewBox="0 0 1440 320"><path fill="#c0dfd0" fill-opacity="1" d="M0,256L26.7,245.3C53.3,235,107,213,160,224C213.3,235,267,277,320,261.3C373.3,245,427,171,480,138.7C533.3,107,587,117,640,149.3C693.3,181,747,235,800,240C853.3,245,907,203,960,197.3C1013.3,192,1067,224,1120,229.3C1173.3,235,1227,213,1280,213.3C1333.3,213,1387,235,1413,245.3L1440,256L1440,320L1413.3,320C1386.7,320,1333,320,1280,320C1226.7,320,1173,320,1120,320C1066.7,320,1013,320,960,320C906.7,320,853,320,800,320C746.7,320,693,320,640,320C586.7,320,533,320,480,320C426.7,320,373,320,320,320C266.7,320,213,320,160,320C106.7,320,53,320,27,320L0,320Z"></path></svg>